<?xml version="1.0" encoding="UTF-8"?>
<!DOCTYPE svg PUBLIC "-//W3C//DTD SVG 1.1//EN" "http://www.w3.org/Graphics/SVG/1.1/DTD/svg11.dtd">
<svg xmlns="http://www.w3.org/2000/svg" version="1.1" width="368px" height="357px" style="shape-rendering:geometricPrecision; text-rendering:geometricPrecision; image-rendering:optimizeQuality; fill-rule:evenodd; clip-rule:evenodd" xmlns:xlink="http://www.w3.org/1999/xlink">
<g><path style="opacity:1" fill="#fdfefe" d="M -0.5,-0.5 C 122.167,-0.5 244.833,-0.5 367.5,-0.5C 367.5,118.5 367.5,237.5 367.5,356.5C 244.833,356.5 122.167,356.5 -0.5,356.5C -0.5,237.5 -0.5,118.5 -0.5,-0.5 Z"/></g>
<g><path style="opacity:1" fill="#e8f6db" d="M 162.5,38.5 C 160.167,38.5 157.833,38.5 155.5,38.5C 155.167,38.5 154.833,38.5 154.5,38.5C 141.595,37.0434 134.595,43.0434 133.5,56.5C 133.667,58.5 133.833,60.5 134,62.5C 134.2,64.3197 135.034,65.653 136.5,66.5C 136.5,67.1667 136.5,67.8333 136.5,68.5C 132.637,65.768 130.97,61.9347 131.5,57C 132.248,42.2465 139.915,35.2465 154.5,36C 157.251,36.9428 159.917,37.7761 162.5,38.5 Z"/></g>
<g><path style="opacity:1" fill="#6db145" d="M 154.5,38.5 C 154.833,38.5 155.167,38.5 155.5,38.5C 163.684,41.4987 172.184,43.8321 181,45.5C 182.03,45.8361 182.53,46.5028 182.5,47.5C 181.751,48.531 181.085,49.6976 180.5,51C 176.833,51.3333 173.167,51.6667 169.5,52C 168.833,53 168.167,54 167.5,55C 159.507,55.4997 151.507,55.6664 143.5,55.5C 143.661,59.723 142.994,63.723 141.5,67.5C 140.5,67.5 139.5,67.5 138.5,67.5C 137.833,67.1667 137.167,66.8333 136.5,66.5C 135.005,60.1052 135.171,53.7719 137,47.5C 138.141,45.3911 139.641,43.5578 141.5,42C 145.784,40.6433 150.118,39.4766 154.5,38.5 Z"/></g>
<g><path style="opacity:1" fill="#6da14c" d="M 155.5,38.5 C 157.833,38.5 160.167,38.5 162.5,38.5C 169.408,41.623 176.742,43.623 184.5,44.5C 184.605,48.5483 184.272,52.5483 183.5,56.5C 183.167,56.5 182.833,56.5 182.5,56.5C 183.541,53.4578 183.541,50.4578 182.5,47.5C 182.53,46.5028 182.03,45.8361 181,45.5C 172.184,43.8321 163.684,41.4987 155.5,38.5 Z"/></g>
<g><path style="opacity:1" fill="#76a351" d="M 154.5,38.5 C 150.118,39.4766 145.784,40.6433 141.5,42C 139.641,43.5578 138.141,45.3911 137,47.5C 135.171,53.7719 135.005,60.1052 136.5,66.5C 135.034,65.653 134.2,64.3197 134,62.5C 133.833,60.5 133.667,58.5 133.5,56.5C 134.595,43.0434 141.595,37.0434 154.5,38.5 Z"/></g>
<g><path style="opacity:1" fill="#2176b1" d="M 221.5,36.5 C 237.646,37.7828 244.479,46.4495 242,62.5C 240.262,66.2413 237.762,69.408 234.5,72C 223.993,75.9366 213.327,79.4366 202.5,82.5C 201.353,82.1822 200.519,81.5156 200,80.5C 197,72.5 194,64.5 191,56.5C 189.682,53.594 189.348,50.594 190,47.5C 200.71,44.0983 211.21,40.4317 221.5,36.5 Z"/></g>
<g><path style="opacity:1" fill="#65ad48" d="M 182.5,47.5 C 183.541,50.4578 183.541,53.4578 182.5,56.5C 182.205,62.6733 180.539,68.34 177.5,73.5C 175.773,75.8729 173.44,77.5396 170.5,78.5C 161.189,77.4535 152.189,75.4535 143.5,72.5C 143.719,71.325 143.386,70.325 142.5,69.5C 140.974,69.0057 139.641,68.339 138.5,67.5C 139.5,67.5 140.5,67.5 141.5,67.5C 142.994,63.723 143.661,59.723 143.5,55.5C 151.507,55.6664 159.507,55.4997 167.5,55C 168.167,54 168.833,53 169.5,52C 173.167,51.6667 176.833,51.3333 180.5,51C 181.085,49.6976 181.751,48.531 182.5,47.5 Z"/></g>
<g><path style="opacity:1" fill="#67a354" d="M 136.5,66.5 C 137.167,66.8333 137.833,67.1667 138.5,67.5C 139.641,68.339 140.974,69.0057 142.5,69.5C 143.386,70.325 143.719,71.325 143.5,72.5C 152.189,75.4535 161.189,77.4535 170.5,78.5C 173.44,77.5396 175.773,75.8729 177.5,73.5C 178.076,77.1219 177.076,80.1219 174.5,82.5C 168.206,80.6232 161.873,78.9566 155.5,77.5C 151.596,76.0505 147.596,74.8838 143.5,74C 141.004,72.3335 138.671,70.5002 136.5,68.5C 136.5,67.8333 136.5,67.1667 136.5,66.5 Z"/></g>
<g><path style="opacity:1" fill="#e8f7df" d="M 182.5,56.5 C 182.833,56.5 183.167,56.5 183.5,56.5C 181.943,65.4425 179.943,74.2759 177.5,83C 170.201,83.5465 163.201,82.3798 156.5,79.5C 156.137,78.8165 155.804,78.1499 155.5,77.5C 161.873,78.9566 168.206,80.6232 174.5,82.5C 177.076,80.1219 178.076,77.1219 177.5,73.5C 180.539,68.34 182.205,62.6733 182.5,56.5 Z"/></g>
<g><path style="opacity:1" fill="#2d6ea1" d="M 186.5,80.5 C 188.017,80.5106 189.184,81.1772 190,82.5C 192.535,87.041 191.701,90.7076 187.5,93.5C 182.546,89.5906 182.213,85.2573 186.5,80.5 Z"/></g>
<g><path style="opacity:1" fill="#356d9c" d="M 196.5,97.5 C 200.225,97.7796 201.392,99.7796 200,103.5C 197.464,106.313 195.297,106.146 193.5,103C 194.124,100.915 195.124,99.0816 196.5,97.5 Z"/></g>
<g><path style="opacity:1" fill="#90ad5e" d="M 268.5,103.5 C 266.883,102.962 265.216,102.629 263.5,102.5C 263.5,103.5 263.5,104.5 263.5,105.5C 262.833,104.5 262.167,103.5 261.5,102.5C 261.281,101.325 261.614,100.325 262.5,99.5C 264.911,100.361 266.911,101.694 268.5,103.5 Z"/></g>
<g><path style="opacity:1" fill="#ddf0c5" d="M 111.5,100.5 C 112.209,99.596 113.209,99.2627 114.5,99.5C 115.047,104.035 113.714,107.702 110.5,110.5C 111.59,107.733 112.59,104.899 113.5,102C 113.164,100.97 112.497,100.47 111.5,100.5 Z"/></g>
<g><path style="opacity:1" fill="#79b142" d="M 111.5,100.5 C 112.497,100.47 113.164,100.97 113.5,102C 112.59,104.899 111.59,107.733 110.5,110.5C 109.662,110.842 109.328,111.508 109.5,112.5C 107.167,114.167 105.167,116.167 103.5,118.5C 102.279,119.028 101.113,119.695 100,120.5C 99.5045,118.527 99.3379,116.527 99.5,114.5C 100.99,107.677 104.99,103.01 111.5,100.5 Z"/></g>
<g><path style="opacity:1" fill="#85b840" d="M 268.5,103.5 C 273.371,106.407 276.037,110.741 276.5,116.5C 276.879,119.567 275.879,120.567 273.5,119.5C 268.204,116.209 264.871,111.542 263.5,105.5C 263.5,104.5 263.5,103.5 263.5,102.5C 265.216,102.629 266.883,102.962 268.5,103.5 Z"/></g>
<g><path style="opacity:1" fill="#326d9f" d="M 176.5,104.5 C 180.994,105.159 182.661,107.825 181.5,112.5C 175.81,112.464 174.144,109.798 176.5,104.5 Z"/></g>
<g><path style="opacity:1" fill="#eefae3" d="M 109.5,112.5 C 109.261,114.467 109.594,116.301 110.5,118C 113.89,118.246 117.223,118.746 120.5,119.5C 122.178,123.474 120.844,125.474 116.5,125.5C 117.476,124.185 118.476,122.852 119.5,121.5C 115.217,120.508 110.884,120.174 106.5,120.5C 104.821,120.715 103.821,120.048 103.5,118.5C 105.167,116.167 107.167,114.167 109.5,112.5 Z"/></g>
<g><path style="opacity:1" fill="#ecf7d8" d="M 261.5,102.5 C 262.167,103.5 262.833,104.5 263.5,105.5C 264.871,111.542 268.204,116.209 273.5,119.5C 273.027,120.906 272.027,121.573 270.5,121.5C 265.881,120.686 261.214,120.353 256.5,120.5C 256.5,121.5 256.5,122.5 256.5,123.5C 253.867,122.189 253.867,120.689 256.5,119C 260.841,119.535 265.175,119.368 269.5,118.5C 264.664,114.161 261.997,108.828 261.5,102.5 Z"/></g>
<g><path style="opacity:1" fill="#76ae4c" d="M 90.5,112.5 C 92.4077,113.486 93.4077,115.152 93.5,117.5C 93.8807,122.802 92.8807,127.802 90.5,132.5C 89.5655,133.568 89.2322,134.901 89.5,136.5C 89.1667,137.167 88.8333,137.833 88.5,138.5C 87.8333,138.5 87.1667,138.5 86.5,138.5C 82.8166,128.99 84.15,120.323 90.5,112.5 Z"/></g>
<g><path style="opacity:1" fill="#a8c58e" d="M 99.5,114.5 C 99.3379,116.527 99.5045,118.527 100,120.5C 101.113,119.695 102.279,119.028 103.5,118.5C 103.821,120.048 104.821,120.715 106.5,120.5C 103.591,122.219 100.757,124.219 98,126.5C 97.5304,127.577 97.6971,128.577 98.5,129.5C 97.1266,129.343 95.7932,129.51 94.5,130C 92.9697,132.352 91.3031,134.519 89.5,136.5C 89.2322,134.901 89.5655,133.568 90.5,132.5C 92.5475,130.45 94.2141,128.117 95.5,125.5C 96.1174,125.389 96.6174,125.056 97,124.5C 97.8847,121.048 98.718,117.714 99.5,114.5 Z"/></g>
<g><path style="opacity:1" fill="#84b542" d="M 270.5,121.5 C 273,123.136 275.666,124.636 278.5,126C 279.823,126.816 280.489,127.983 280.5,129.5C 272.596,131.942 265.596,130.608 259.5,125.5C 258.5,124.833 257.5,124.167 256.5,123.5C 256.5,122.5 256.5,121.5 256.5,120.5C 261.214,120.353 265.881,120.686 270.5,121.5 Z"/></g>
<g><path style="opacity:1" fill="#d6e8ba" d="M 276.5,116.5 C 277.965,118.546 277.632,120.38 275.5,122C 276.595,123.675 278.095,124.842 280,125.5C 280.186,122.964 280.686,120.631 281.5,118.5C 281.195,124.112 282.528,129.279 285.5,134C 284.2,135.579 284.534,136.745 286.5,137.5C 286.75,139.674 287.75,141.341 289.5,142.5C 290.354,144.035 290.354,145.368 289.5,146.5C 287.386,142.049 284.053,139.049 279.5,137.5C 280.5,137.5 281.5,137.5 282.5,137.5C 282.713,134.549 282.046,131.882 280.5,129.5C 280.489,127.983 279.823,126.816 278.5,126C 275.666,124.636 273,123.136 270.5,121.5C 272.027,121.573 273.027,120.906 273.5,119.5C 275.879,120.567 276.879,119.567 276.5,116.5 Z"/></g>
<g><path style="opacity:1" fill="#d8f3be" d="M 93.5,117.5 C 94.1667,120.167 94.8333,122.833 95.5,125.5C 94.2141,128.117 92.5475,130.45 90.5,132.5C 92.8807,127.802 93.8807,122.802 93.5,117.5 Z"/></g>
<g><path style="opacity:1" fill="#78a84c" d="M 106.5,120.5 C 110.884,120.174 115.217,120.508 119.5,121.5C 118.476,122.852 117.476,124.185 116.5,125.5C 111.061,129.993 105.061,131.326 98.5,129.5C 97.6971,128.577 97.5304,127.577 98,126.5C 100.757,124.219 103.591,122.219 106.5,120.5 Z"/></g>
<g><path style="opacity:1" fill="#77b63e" d="M 107.5,122.5 C 110.247,122.187 112.914,122.52 115.5,123.5C 111.084,128.221 105.751,129.554 99.5,127.5C 102.162,125.609 104.828,123.942 107.5,122.5 Z"/></g>
<g><path style="opacity:1" fill="#86b742" d="M 286.5,115.5 C 287.441,117.05 288.107,118.716 288.5,120.5C 288.666,125.179 288.499,129.845 288,134.5C 287.768,135.737 287.268,136.737 286.5,137.5C 284.534,136.745 284.2,135.579 285.5,134C 282.528,129.279 281.195,124.112 281.5,118.5C 281.247,116.173 281.914,114.173 283.5,112.5C 284.855,113.188 285.855,114.188 286.5,115.5 Z"/></g>
<g><path style="opacity:1" fill="#7baa5a" d="M 75.5,128.5 C 78.6606,130.92 80.3273,134.253 80.5,138.5C 80.81,141.713 80.4767,144.713 79.5,147.5C 79.6653,143.818 79.4986,140.152 79,136.5C 77.7648,131.849 76.0981,131.516 74,135.5C 73.501,139.821 73.3343,144.154 73.5,148.5C 72.7784,148.082 72.2784,147.416 72,146.5C 71.3333,142.833 71.3333,139.167 72,135.5C 73.705,133.423 74.8717,131.09 75.5,128.5 Z"/></g>
<g><path style="opacity:1" fill="#f4faea" d="M 259.5,125.5 C 265.596,130.608 272.596,131.942 280.5,129.5C 282.046,131.882 282.713,134.549 282.5,137.5C 281.5,137.5 280.5,137.5 279.5,137.5C 275.479,136.495 271.479,136.495 267.5,137.5C 268.857,139.186 270.19,140.852 271.5,142.5C 272.527,144.194 273.861,145.527 275.5,146.5C 270.108,145.61 266.775,142.444 265.5,137C 267.915,134.403 270.748,133.903 274,135.5C 274.5,134.333 275.333,133.5 276.5,133C 272.833,132.667 269.167,132.333 265.5,132C 262.706,130.465 260.706,128.298 259.5,125.5 Z"/></g>
<g><path style="opacity:1" fill="#e8f6d0" d="M 299.5,130.5 C 299.5,130.167 299.5,129.833 299.5,129.5C 301.017,129.511 302.184,130.177 303,131.5C 303.497,133.81 303.663,136.143 303.5,138.5C 302.833,137.5 302.167,136.5 301.5,135.5C 301.598,133.447 300.931,131.78 299.5,130.5 Z"/></g>
<g><path style="opacity:1" fill="#eff8e7" d="M 116.5,125.5 C 115.432,127.74 113.766,129.574 111.5,131C 107.858,131.914 104.192,132.748 100.5,133.5C 103.167,134.167 105.833,134.833 108.5,135.5C 110.092,137.225 109.758,138.225 107.5,138.5C 100.243,135.329 93.5766,136.662 87.5,142.5C 86.9569,142.44 86.6236,142.107 86.5,141.5C 87.1925,140.482 87.8592,139.482 88.5,138.5C 88.8333,137.833 89.1667,137.167 89.5,136.5C 91.3031,134.519 92.9697,132.352 94.5,130C 95.7932,129.51 97.1266,129.343 98.5,129.5C 105.061,131.326 111.061,129.993 116.5,125.5 Z"/></g>
<g><path style="opacity:1" fill="#2774ae" d="M 251.5,159.5 C 251.5,160.167 251.167,160.5 250.5,160.5C 248.605,155.937 245.605,152.27 241.5,149.5C 237.255,144.764 232.255,140.931 226.5,138C 221.657,135.664 216.657,133.831 211.5,132.5C 210.009,135.23 208.675,135.063 207.5,132C 203.042,130.553 198.709,130.386 194.5,131.5C 194.5,132.167 194.167,132.5 193.5,132.5C 189.775,131.04 186.275,131.707 183,134.5C 178.949,132.958 176.782,134.125 176.5,138C 173.998,139.432 171.498,139.598 169,138.5C 167.759,140.421 166.259,140.754 164.5,139.5C 165.376,138.749 166.376,138.249 167.5,138C 165.406,136.648 163.073,136.148 160.5,136.5C 158.801,136.34 157.134,136.506 155.5,137C 151.304,139.261 147.304,141.761 143.5,144.5C 142.292,143.766 140.959,143.433 139.5,143.5C 139.579,142.07 139.246,140.736 138.5,139.5C 139.857,137.814 141.19,136.148 142.5,134.5C 145.228,131.291 148.561,128.791 152.5,127C 189.721,112.41 221.221,120.243 247,150.5C 248.513,153.527 250.013,156.527 251.5,159.5 Z"/></g>
<g><path style="opacity:1" fill="#cbe7f2" d="M 178.5,128.5 C 179.552,128.351 180.552,128.517 181.5,129C 178.481,130.179 175.481,131.513 172.5,133C 169.947,133.851 167.614,133.518 165.5,132C 169.974,130.88 174.307,129.714 178.5,128.5 Z"/></g>
<g><path style="opacity:1" fill="#f3faee" d="M 90.5,112.5 C 84.15,120.323 82.8166,128.99 86.5,138.5C 85.5,140.5 84.5,142.5 83.5,144.5C 81.9397,142.844 80.9397,140.844 80.5,138.5C 80.3273,134.253 78.6606,130.92 75.5,128.5C 75.5,127.5 75.5,126.5 75.5,125.5C 78.7396,123.866 80.9063,124.866 82,128.5C 82.2445,122.76 84.2445,117.76 88,113.5C 88.6708,112.748 89.5041,112.414 90.5,112.5 Z"/></g>
<g><path style="opacity:1" fill="#6cad46" d="M 79.5,147.5 C 79.5,148.5 79.5,149.5 79.5,150.5C 78.6923,152.22 77.6923,153.887 76.5,155.5C 75.5,154.167 74.5,152.833 73.5,151.5C 73.5,150.5 73.5,149.5 73.5,148.5C 73.3343,144.154 73.501,139.821 74,135.5C 76.0981,131.516 77.7648,131.849 79,136.5C 79.4986,140.152 79.6653,143.818 79.5,147.5 Z"/></g>
<g><path style="opacity:1" fill="#84a951" d="M 288.5,120.5 C 290.981,126.329 290.981,132.329 288.5,138.5C 288.846,139.849 289.179,141.183 289.5,142.5C 287.75,141.341 286.75,139.674 286.5,137.5C 287.268,136.737 287.768,135.737 288,134.5C 288.499,129.845 288.666,125.179 288.5,120.5 Z"/></g>
<g><path style="opacity:1" fill="#ddeff4" d="M 211.5,132.5 C 216.657,133.831 221.657,135.664 226.5,138C 232.255,140.931 237.255,144.764 241.5,149.5C 240.417,149.461 239.417,149.127 238.5,148.5C 237.174,149.99 235.674,151.324 234,152.5C 233.982,154.797 234.149,157.131 234.5,159.5C 232.232,155.144 229.565,150.977 226.5,147C 230.213,146.595 233.879,146.595 237.5,147C 232.686,144.936 227.686,143.436 222.5,142.5C 218.813,139.145 215.147,135.811 211.5,132.5 Z"/></g>
<g><path style="opacity:1" fill="#7fb641" d="M 279.5,137.5 C 284.053,139.049 287.386,142.049 289.5,146.5C 286.696,147.638 283.696,147.805 280.5,147C 277.757,144.962 274.757,143.462 271.5,142.5C 270.19,140.852 268.857,139.186 267.5,137.5C 271.479,136.495 275.479,136.495 279.5,137.5 Z"/></g>
<g><path style="opacity:1" fill="#eefadb" d="M 286.5,115.5 C 288.017,115.511 289.184,116.177 290,117.5C 291.152,121.091 291.985,124.758 292.5,128.5C 290.887,133.008 290.221,137.674 290.5,142.5C 290.167,142.5 289.833,142.5 289.5,142.5C 289.179,141.183 288.846,139.849 288.5,138.5C 290.981,132.329 290.981,126.329 288.5,120.5C 288.107,118.716 287.441,117.05 286.5,115.5 Z"/></g>
<g><path style="opacity:1" fill="#e9f8d4" d="M 299.5,128.5 C 298.883,128.389 298.383,128.056 298,127.5C 294.596,134.932 293.763,142.598 295.5,150.5C 295.631,151.239 295.464,151.906 295,152.5C 293.589,150.35 292.755,148.016 292.5,145.5C 293.208,139.55 294.374,133.55 296,127.5C 297.736,124.936 298.902,125.269 299.5,128.5 Z"/></g>
<g><path style="opacity:1" fill="#84bb37" d="M 299.5,130.5 C 300.931,131.78 301.598,133.447 301.5,135.5C 301.5,139.5 301.5,143.5 301.5,147.5C 297.711,146.266 296.211,143.599 297,139.5C 297.743,141.645 298.576,141.811 299.5,140C 298.399,137.965 297.732,135.798 297.5,133.5C 297.64,131.97 298.307,130.97 299.5,130.5 Z"/></g>
<g><path style="opacity:1" fill="#6fac44" d="M 107.5,138.5 C 105.807,141.19 103.473,143.19 100.5,144.5C 95.6055,145.962 90.6055,146.962 85.5,147.5C 85.3915,145.486 86.0582,143.82 87.5,142.5C 93.5766,136.662 100.243,135.329 107.5,138.5 Z"/></g>
<g><path style="opacity:1" fill="#86b347" d="M 299.5,128.5 C 299.5,128.833 299.5,129.167 299.5,129.5C 299.5,129.833 299.5,130.167 299.5,130.5C 298.307,130.97 297.64,131.97 297.5,133.5C 297.732,135.798 298.399,137.965 299.5,140C 298.576,141.811 297.743,141.645 297,139.5C 296.211,143.599 297.711,146.266 301.5,147.5C 301.5,143.5 301.5,139.5 301.5,135.5C 302.167,136.5 302.833,137.5 303.5,138.5C 303.456,144.964 301.789,150.964 298.5,156.5C 296.94,154.844 295.94,152.844 295.5,150.5C 293.763,142.598 294.596,134.932 298,127.5C 298.383,128.056 298.883,128.389 299.5,128.5 Z"/></g>
<g><path style="opacity:1" fill="#d9f6c9" d="M 80.5,138.5 C 80.9397,140.844 81.9397,142.844 83.5,144.5C 82.5254,146.795 81.1921,148.795 79.5,150.5C 79.5,149.5 79.5,148.5 79.5,147.5C 80.4767,144.713 80.81,141.713 80.5,138.5 Z"/></g>
<g><path style="opacity:1" fill="#e7f6de" d="M 67.5,152.5 C 66.2876,151.77 65.2876,150.77 64.5,149.5C 63.7492,150.376 63.2492,151.376 63,152.5C 62.3914,157.861 62.5581,163.195 63.5,168.5C 62.6851,167.571 61.8518,166.571 61,165.5C 60.7595,160.295 60.2595,155.128 59.5,150C 64.1882,143.5 66.8549,144.334 67.5,152.5 Z"/></g>
<g><path style="opacity:1" fill="#7fa865" d="M 86.5,138.5 C 87.1667,138.5 87.8333,138.5 88.5,138.5C 87.8592,139.482 87.1925,140.482 86.5,141.5C 86.6236,142.107 86.9569,142.44 87.5,142.5C 86.0582,143.82 85.3915,145.486 85.5,147.5C 90.6055,146.962 95.6055,145.962 100.5,144.5C 100.167,145.167 99.8333,145.833 99.5,146.5C 93.9094,147.798 88.2428,148.798 82.5,149.5C 78.3105,157.07 75.3105,165.07 73.5,173.5C 72.8333,173.167 72.1667,172.833 71.5,172.5C 71.6695,170.088 71.0028,167.921 69.5,166C 70.3105,163.217 70.3105,160.383 69.5,157.5C 71.7183,160.719 72.885,164.386 73,168.5C 74.9489,164.371 76.1156,160.037 76.5,155.5C 77.6923,153.887 78.6923,152.22 79.5,150.5C 81.1921,148.795 82.5254,146.795 83.5,144.5C 84.5,142.5 85.5,140.5 86.5,138.5 Z"/></g>
<g><path style="opacity:1" fill="#ebfbe1" d="M 75.5,128.5 C 74.8717,131.09 73.705,133.423 72,135.5C 71.3333,139.167 71.3333,142.833 72,146.5C 72.2784,147.416 72.7784,148.082 73.5,148.5C 73.5,149.5 73.5,150.5 73.5,151.5C 72.2502,151.423 71.4169,150.756 71,149.5C 70.3333,144.5 70.3333,139.5 71,134.5C 72.2425,132.141 73.7425,130.141 75.5,128.5 Z"/></g>
<g><path style="opacity:1" fill="#8fad66" d="M 271.5,142.5 C 274.757,143.462 277.757,144.962 280.5,147C 283.696,147.805 286.696,147.638 289.5,146.5C 290.354,145.368 290.354,144.035 289.5,142.5C 289.833,142.5 290.167,142.5 290.5,142.5C 290.932,143.71 291.599,144.71 292.5,145.5C 292.755,148.016 293.589,150.35 295,152.5C 295.464,151.906 295.631,151.239 295.5,150.5C 295.94,152.844 296.94,154.844 298.5,156.5C 297.894,159.036 298.56,161.37 300.5,163.5C 301.219,165.764 301.552,168.097 301.5,170.5C 301.5,171.167 301.5,171.833 301.5,172.5C 301.167,172.5 300.833,172.5 300.5,172.5C 300.737,171.209 300.404,170.209 299.5,169.5C 299.5,169.167 299.5,168.833 299.5,168.5C 297.966,162.238 295.633,156.238 292.5,150.5C 287.408,149.236 282.408,147.902 277.5,146.5C 276.833,146.5 276.167,146.5 275.5,146.5C 273.861,145.527 272.527,144.194 271.5,142.5 Z"/></g>
<g><path style="opacity:1" fill="#f3fbe7" d="M 303.5,138.5 C 304.162,140.304 304.495,142.304 304.5,144.5C 304.709,147.454 304.042,150.121 302.5,152.5C 303.5,153.833 304.5,153.833 305.5,152.5C 306.701,150.091 308.367,148.091 310.5,146.5C 312.217,147.668 312.884,149.335 312.5,151.5C 311.833,151.5 311.5,151.167 311.5,150.5C 310.811,149.226 309.977,149.226 309,150.5C 306.865,153.767 305.031,157.101 303.5,160.5C 302.9,161.9 301.9,162.9 300.5,163.5C 298.56,161.37 297.894,159.036 298.5,156.5C 301.789,150.964 303.456,144.964 303.5,138.5 Z"/></g>
<g><path style="opacity:1" fill="#2a71a7" d="M 194.5,131.5 C 198.709,130.386 203.042,130.553 207.5,132C 208.675,135.063 210.009,135.23 211.5,132.5C 215.147,135.811 218.813,139.145 222.5,142.5C 227.686,143.436 232.686,144.936 237.5,147C 233.879,146.595 230.213,146.595 226.5,147C 229.565,150.977 232.232,155.144 234.5,159.5C 234.607,161.379 234.107,161.712 233,160.5C 229.768,155.212 225.935,150.378 221.5,146C 214.242,146.416 207.242,148.082 200.5,151C 200.167,151.333 199.833,151.667 199.5,152C 206.606,159.711 212.606,168.211 217.5,177.5C 222.187,175.156 227.187,173.656 232.5,173C 235.167,172.333 237.833,172.333 240.5,173C 219.334,177.745 201.334,187.911 186.5,203.5C 176.306,213.564 169.139,225.564 165,239.5C 165.189,226.601 169.523,215.268 178,205.5C 181.016,202.651 183.85,199.651 186.5,196.5C 181.167,189.167 174.833,182.833 167.5,177.5C 160.014,187.258 155.014,198.258 152.5,210.5C 155.001,214.817 158.001,218.817 161.5,222.5C 158.192,221.485 155.025,219.485 152,216.5C 151.289,223.215 151.622,229.882 153,236.5C 154.841,243.479 157.175,250.146 160,256.5C 149.915,243.242 145.248,228.242 146,211.5C 141.978,207.977 137.811,204.643 133.5,201.5C 131.578,213.596 132.745,225.263 137,236.5C 133.547,231.257 130.88,225.591 129,219.5C 128.13,212.185 127.463,204.852 127,197.5C 125.247,196.373 123.413,195.373 121.5,194.5C 121.42,225.497 135.42,247.663 163.5,261C 153.64,259.409 144.64,255.576 136.5,249.5C 109.046,221.77 104.213,190.436 122,155.5C 127.019,146.649 133.852,139.649 142.5,134.5C 141.19,136.148 139.857,137.814 138.5,139.5C 139.246,140.736 139.579,142.07 139.5,143.5C 140.959,143.433 142.292,143.766 143.5,144.5C 141.32,146.848 139.32,149.348 137.5,152C 139.375,153.86 141.542,155.36 144,156.5C 149.54,149.293 156.04,143.126 163.5,138C 162.263,137.768 161.263,137.268 160.5,136.5C 163.073,136.148 165.406,136.648 167.5,138C 166.376,138.249 165.376,138.749 164.5,139.5C 166.259,140.754 167.759,140.421 169,138.5C 171.498,139.598 173.998,139.432 176.5,138C 176.782,134.125 178.949,132.958 183,134.5C 186.275,131.707 189.775,131.04 193.5,132.5C 188.429,133.69 183.429,135.19 178.5,137C 184.137,139.82 189.47,143.153 194.5,147C 202.036,145.221 209.702,143.721 217.5,142.5C 211.253,135.876 203.586,132.21 194.5,131.5 Z"/></g>
<g><path style="opacity:1" fill="#eff7f8" d="M 160.5,136.5 C 161.263,137.268 162.263,137.768 163.5,138C 156.04,143.126 149.54,149.293 144,156.5C 141.542,155.36 139.375,153.86 137.5,152C 139.32,149.348 141.32,146.848 143.5,144.5C 147.304,141.761 151.304,139.261 155.5,137C 157.134,136.506 158.801,136.34 160.5,136.5 Z"/></g>
<g><path style="opacity:1" fill="#f3f9fa" d="M 171.5,140.5 C 178.403,142.694 184.737,146.028 190.5,150.5C 181.268,155.62 172.935,161.953 165.5,169.5C 160.56,166.215 155.894,162.715 151.5,159C 157.188,151.677 163.855,145.51 171.5,140.5 Z"/></g>
<g><path style="opacity:1" fill="#f2f9f9" d="M 194.5,131.5 C 203.586,132.21 211.253,135.876 217.5,142.5C 209.702,143.721 202.036,145.221 194.5,147C 189.47,143.153 184.137,139.82 178.5,137C 183.429,135.19 188.429,133.69 193.5,132.5C 194.167,132.5 194.5,132.167 194.5,131.5 Z"/></g>
<g><path style="opacity:1" fill="#eff9e3" d="M 277.5,146.5 C 282.408,147.902 287.408,149.236 292.5,150.5C 295.633,156.238 297.966,162.238 299.5,168.5C 295.452,158.751 288.119,154.251 277.5,155C 279.305,158.11 280.971,161.277 282.5,164.5C 276.222,161.631 273.222,156.631 273.5,149.5C 275.942,149.354 276.609,150.187 275.5,152C 277.179,152.395 278.845,152.228 280.5,151.5C 283.022,152.762 285.689,153.429 288.5,153.5C 288.5,152.5 288.5,151.5 288.5,150.5C 285.126,150.326 281.793,149.826 278.5,149C 277.748,148.329 277.414,147.496 277.5,146.5 Z"/></g>
<g><path style="opacity:1" fill="#f6fafa" d="M 193.5,153.5 C 197.067,155.557 200.234,158.223 203,161.5C 207.078,166.657 210.912,171.99 214.5,177.5C 205.293,182.38 196.626,188.047 188.5,194.5C 183.249,186.911 177.249,179.911 170.5,173.5C 177.004,165.317 184.671,158.651 193.5,153.5 Z"/></g>
<g><path style="opacity:1" fill="#90a6b8" d="M 251.5,159.5 C 253.099,160.799 253.599,162.465 253,164.5C 251.905,163.307 251.072,161.973 250.5,160.5C 251.167,160.5 251.5,160.167 251.5,159.5 Z"/></g>
<g><path style="opacity:1" fill="#67ac48" d="M 94.5,161.5 C 93.5987,162.29 92.9321,163.29 92.5,164.5C 90.6854,165.63 88.6854,166.296 86.5,166.5C 83.9512,166.387 81.6179,167.054 79.5,168.5C 79.1667,168 78.8333,167.5 78.5,167C 79.6726,164.35 81.0059,161.85 82.5,159.5C 86.7507,155.52 91.7507,154.187 97.5,155.5C 96.4867,157.527 95.4867,159.527 94.5,161.5 Z"/></g>
<g><path style="opacity:1" fill="#80b447" d="M 299.5,168.5 C 299.5,168.833 299.5,169.167 299.5,169.5C 298.399,170.598 297.066,170.765 295.5,170C 291.112,168.318 286.779,166.485 282.5,164.5C 280.971,161.277 279.305,158.11 277.5,155C 288.119,154.251 295.452,158.751 299.5,168.5 Z"/></g>
<g><path style="opacity:1" fill="#67ab48" d="M 67.5,152.5 C 68.4408,154.05 69.1075,155.716 69.5,157.5C 70.3105,160.383 70.3105,163.217 69.5,166C 71.0028,167.921 71.6695,170.088 71.5,172.5C 70.0119,175.186 69.3453,174.853 69.5,171.5C 68.5,171.5 67.5,171.5 66.5,171.5C 65.2719,170.694 64.2719,169.694 63.5,168.5C 62.5581,163.195 62.3914,157.861 63,152.5C 63.2492,151.376 63.7492,150.376 64.5,149.5C 65.2876,150.77 66.2876,151.77 67.5,152.5 Z"/></g>
<g><path style="opacity:1" fill="#81b73f" d="M 311.5,150.5 C 311.5,151.167 311.833,151.5 312.5,151.5C 312.5,152.167 312.5,152.833 312.5,153.5C 312.666,157.846 312.499,162.179 312,166.5C 311.246,169.684 309.746,172.351 307.5,174.5C 305.955,173.77 305.122,172.437 305,170.5C 304.371,166.129 304.537,161.796 305.5,157.5C 306.5,157.5 307.5,157.5 308.5,157.5C 308.552,154.654 309.552,152.32 311.5,150.5 Z"/></g>
<g><path style="opacity:1" fill="#6c9e57" d="M 82.5,159.5 C 81.0059,161.85 79.6726,164.35 78.5,167C 78.8333,167.5 79.1667,168 79.5,168.5C 81.6179,167.054 83.9512,166.387 86.5,166.5C 83.1092,168.929 79.4426,169.929 75.5,169.5C 76.8715,165.399 79.2049,162.066 82.5,159.5 Z"/></g>
<g><path style="opacity:1" fill="#d2eeaf" d="M 303.5,160.5 C 303.666,164.846 303.499,169.179 303,173.5C 302.768,172.263 302.268,171.263 301.5,170.5C 301.552,168.097 301.219,165.764 300.5,163.5C 301.9,162.9 302.9,161.9 303.5,160.5 Z"/></g>
<g><path style="opacity:1" fill="#f3fafa" d="M 146.5,164.5 C 152.451,166.616 157.785,169.783 162.5,174C 158.106,179.286 154.606,185.119 152,191.5C 150.732,196.637 149.066,201.637 147,206.5C 142.326,202.657 137.826,198.657 133.5,194.5C 136.241,183.697 140.574,173.697 146.5,164.5 Z"/></g>
<g><path style="opacity:1" fill="#f4faea" d="M 282.5,164.5 C 286.779,166.485 291.112,168.318 295.5,170C 297.066,170.765 298.399,170.598 299.5,169.5C 300.404,170.209 300.737,171.209 300.5,172.5C 300.59,174.696 300.923,176.863 301.5,179C 301.167,179.833 300.833,180.667 300.5,181.5C 299.571,180.311 299.238,178.978 299.5,177.5C 297.784,177.371 296.117,177.038 294.5,176.5C 291.67,174.921 288.67,173.588 285.5,172.5C 285.193,173.887 285.193,175.554 285.5,177.5C 280.256,174.78 280.256,171.946 285.5,169C 283.9,167.877 282.9,166.377 282.5,164.5 Z"/></g>
<g><path style="opacity:1" fill="#f1fadf" d="M 268.5,178.5 C 267.801,176.444 266.801,174.444 265.5,172.5C 264.055,174.394 262.388,176.06 260.5,177.5C 261.759,174.634 262.759,171.634 263.5,168.5C 265.39,168.297 266.89,168.963 268,170.5C 268.497,173.146 268.664,175.813 268.5,178.5 Z"/></g>
<g><path style="opacity:1" fill="#81ad4a" d="M 311.5,150.5 C 309.552,152.32 308.552,154.654 308.5,157.5C 307.5,157.5 306.5,157.5 305.5,157.5C 304.537,161.796 304.371,166.129 305,170.5C 305.122,172.437 305.955,173.77 307.5,174.5C 305.975,176.216 304.975,178.216 304.5,180.5C 304.167,180.5 303.833,180.5 303.5,180.5C 302.469,178.039 301.802,175.373 301.5,172.5C 301.5,171.833 301.5,171.167 301.5,170.5C 302.268,171.263 302.768,172.263 303,173.5C 303.499,169.179 303.666,164.846 303.5,160.5C 305.031,157.101 306.865,153.767 309,150.5C 309.977,149.226 310.811,149.226 311.5,150.5 Z"/></g>
<g><path style="opacity:1" fill="#ebf7f9" d="M 131.5,158.5 C 134.774,158.635 137.774,159.635 140.5,161.5C 134.346,170.627 130.346,180.627 128.5,191.5C 124.893,190.064 122.56,187.564 121.5,184C 122.781,174.651 126.114,166.151 131.5,158.5 Z"/></g>
<g><path style="opacity:1" fill="#ebf8e6" d="M 99.5,146.5 C 99.2924,148.92 99.6258,151.253 100.5,153.5C 100.712,157.998 98.7119,160.664 94.5,161.5C 95.4867,159.527 96.4867,157.527 97.5,155.5C 91.7507,154.187 86.7507,155.52 82.5,159.5C 79.2049,162.066 76.8715,165.399 75.5,169.5C 79.4426,169.929 83.1092,168.929 86.5,166.5C 88.6854,166.296 90.6854,165.63 92.5,164.5C 92.1961,165.15 91.8627,165.817 91.5,166.5C 86.2058,168.262 81.2058,170.595 76.5,173.5C 75.2009,175.307 75.3676,176.973 77,178.5C 79.4244,174.568 82.9244,172.568 87.5,172.5C 79.1018,176.923 74.1018,183.923 72.5,193.5C 72.6667,194.167 72.8333,194.833 73,195.5C 77.6431,192.683 81.8098,189.349 85.5,185.5C 88.5064,182.484 90.1731,178.818 90.5,174.5C 90.8333,174.5 91.1667,174.5 91.5,174.5C 91.6641,177.187 91.4974,179.854 91,182.5C 88.5,185.333 86,188.167 83.5,191C 85.764,191.236 87.9307,191.736 90,192.5C 90.1667,193.333 90.3333,194.167 90.5,195C 90.3158,196.376 89.6491,197.209 88.5,197.5C 88.7852,195.712 88.4519,194.045 87.5,192.5C 79.9989,196.317 75.6656,202.317 74.5,210.5C 73.5233,213.287 73.19,216.287 73.5,219.5C 71.9938,211.555 71.3272,203.388 71.5,195C 71.6667,189.5 71.8333,184 72,178.5C 72.3519,176.753 72.8519,175.086 73.5,173.5C 75.3105,165.07 78.3105,157.07 82.5,149.5C 88.2428,148.798 93.9094,147.798 99.5,146.5 Z"/></g>
<g><path style="opacity:1" fill="#60ae45" d="M 90.5,174.5 C 90.1731,178.818 88.5064,182.484 85.5,185.5C 83.5,185.833 81.5,186.167 79.5,186.5C 79.5,187.5 79.5,188.5 79.5,189.5C 78.5,189.5 77.5,189.5 76.5,189.5C 77.7018,186.091 79.2018,182.758 81,179.5C 83.3194,176.227 86.486,174.56 90.5,174.5 Z"/></g>
<g><path style="opacity:1" fill="#effae1" d="M 256.5,180.5 C 254.651,181.593 252.984,182.926 251.5,184.5C 238.944,188.807 226.277,192.807 213.5,196.5C 214.88,194.631 216.713,193.298 219,192.5C 228.62,190.061 238.12,187.228 247.5,184C 249.116,183.385 250.449,182.385 251.5,181C 253.134,180.506 254.801,180.34 256.5,180.5 Z"/></g>
<g><path style="opacity:1" fill="#ebf7d8" d="M 300.5,172.5 C 300.833,172.5 301.167,172.5 301.5,172.5C 301.802,175.373 302.469,178.039 303.5,180.5C 303.817,184.702 303.483,188.702 302.5,192.5C 301.418,186.336 298.751,181.003 294.5,176.5C 296.117,177.038 297.784,177.371 299.5,177.5C 299.238,178.978 299.571,180.311 300.5,181.5C 300.833,180.667 301.167,179.833 301.5,179C 300.923,176.863 300.59,174.696 300.5,172.5 Z"/></g>
<g><path style="opacity:1" fill="#eff7e4" d="M 312.5,153.5 C 314.569,155.098 315.569,157.265 315.5,160C 314.359,164.173 313.026,168.34 311.5,172.5C 311.977,173.931 312.643,175.264 313.5,176.5C 314.386,175.675 314.719,174.675 314.5,173.5C 316.415,173.216 318.081,173.549 319.5,174.5C 317.236,175.581 315.069,176.915 313,178.5C 310.212,182.429 307.712,186.429 305.5,190.5C 305.167,187.167 304.833,183.833 304.5,180.5C 304.975,178.216 305.975,176.216 307.5,174.5C 309.746,172.351 311.246,169.684 312,166.5C 312.499,162.179 312.666,157.846 312.5,153.5 Z"/></g>
<g><path style="opacity:1" fill="#f3faf9" d="M 186.5,203.5 C 188.024,209.696 190.357,210.029 193.5,204.5C 195.167,203.833 196.833,203.167 198.5,202.5C 199.228,200.807 200.228,199.307 201.5,198C 204.827,197.39 208.161,196.89 211.5,196.5C 211.167,197.167 210.833,197.833 210.5,198.5C 209.508,198.328 208.842,198.662 208.5,199.5C 194.759,204.573 184.426,213.573 177.5,226.5C 175.992,228.181 174.992,230.181 174.5,232.5C 173.883,232.611 173.383,232.944 173,233.5C 169.736,242.218 168.236,251.218 168.5,260.5C 167.501,262.943 165.668,264.609 163,265.5C 158.664,263.691 154.164,262.358 149.5,261.5C 148.5,261.833 147.5,262.167 146.5,262.5C 148.274,263.187 149.941,264.02 151.5,265C 148.259,265.793 145.259,265.293 142.5,263.5C 142.047,262.542 141.381,261.708 140.5,261C 141.448,260.517 142.448,260.351 143.5,260.5C 143.36,258.876 144.027,257.71 145.5,257C 143.797,256.255 142.13,255.421 140.5,254.5C 138.199,255.396 135.866,255.562 133.5,255C 137.291,254.583 138.291,252.75 136.5,249.5C 144.64,255.576 153.64,259.409 163.5,261C 135.42,247.663 121.42,225.497 121.5,194.5C 123.413,195.373 125.247,196.373 127,197.5C 127.463,204.852 128.13,212.185 129,219.5C 130.88,225.591 133.547,231.257 137,236.5C 132.745,225.263 131.578,213.596 133.5,201.5C 137.811,204.643 141.978,207.977 146,211.5C 145.248,228.242 149.915,243.242 160,256.5C 157.175,250.146 154.841,243.479 153,236.5C 151.622,229.882 151.289,223.215 152,216.5C 155.025,219.485 158.192,221.485 161.5,222.5C 158.001,218.817 155.001,214.817 152.5,210.5C 155.014,198.258 160.014,187.258 167.5,177.5C 174.833,182.833 181.167,189.167 186.5,196.5C 183.85,199.651 181.016,202.651 178,205.5C 169.523,215.268 165.189,226.601 165,239.5C 169.139,225.564 176.306,213.564 186.5,203.5 Z"/></g>
<g><path style="opacity:1" fill="#7bb144" d="M 294.5,176.5 C 298.751,181.003 301.418,186.336 302.5,192.5C 302.5,193.167 302.5,193.833 302.5,194.5C 294.446,191.113 288.78,185.446 285.5,177.5C 285.193,175.554 285.193,173.887 285.5,172.5C 288.67,173.588 291.67,174.921 294.5,176.5 Z"/></g>
<g><path style="opacity:1" fill="#64a153" d="M 87.5,172.5 C 89.4832,172.157 90.8166,172.824 91.5,174.5C 91.1667,174.5 90.8333,174.5 90.5,174.5C 86.486,174.56 83.3194,176.227 81,179.5C 79.2018,182.758 77.7018,186.091 76.5,189.5C 77.5,189.5 78.5,189.5 79.5,189.5C 79.5,188.5 79.5,187.5 79.5,186.5C 81.5,186.167 83.5,185.833 85.5,185.5C 81.8098,189.349 77.6431,192.683 73,195.5C 72.8333,194.833 72.6667,194.167 72.5,193.5C 74.1018,183.923 79.1018,176.923 87.5,172.5 Z"/></g>
<g><path style="opacity:1" fill="#61a350" d="M 66.5,185.5 C 68.0682,187.811 68.9016,190.478 69,193.5C 69.4643,192.906 69.631,192.239 69.5,191.5C 70.8333,194.833 70.8333,198.167 69.5,201.5C 59.2785,195.044 55.1118,185.71 57,173.5C 61.1667,176.819 64.3334,180.819 66.5,185.5 Z"/></g>
<g><path style="opacity:1" fill="#5dae48" d="M 66.5,185.5 C 66.858,189.599 66.858,193.599 66.5,197.5C 63.9079,195.839 63.2412,193.672 64.5,191C 59.8553,188.975 58.3553,185.475 60,180.5C 61.7581,182.765 63.9248,184.432 66.5,185.5 Z"/></g>
<g><path style="opacity:1" fill="#75b443" d="M 261.5,216.5 C 261.663,214.143 261.497,211.81 261,209.5C 260.667,210.167 260.333,210.833 260,211.5C 258.974,207.493 256.64,206.159 253,207.5C 249.061,205.619 244.894,204.453 240.5,204C 243.553,203.821 246.553,203.321 249.5,202.5C 249.023,201.522 248.357,200.689 247.5,200C 242.913,199.201 238.413,199.368 234,200.5C 233.481,199.484 232.647,198.818 231.5,198.5C 228.198,198.43 224.865,198.764 221.5,199.5C 221.5,198.5 221.5,197.5 221.5,196.5C 227.615,194.106 233.948,192.272 240.5,191C 244.449,189.269 248.116,187.102 251.5,184.5C 252.984,182.926 254.651,181.593 256.5,180.5C 257.833,179.833 259.167,179.167 260.5,178.5C 262.044,178.297 263.378,177.63 264.5,176.5C 265.086,176.709 265.586,177.043 266,177.5C 267.659,191.768 266.492,205.768 262.5,219.5C 261.614,218.675 261.281,217.675 261.5,216.5 Z"/></g>
<g><path style="opacity:1" fill="#a9ca92" d="M 303.5,180.5 C 303.833,180.5 304.167,180.5 304.5,180.5C 304.833,183.833 305.167,187.167 305.5,190.5C 304.833,196.833 304.167,203.167 303.5,209.5C 303.779,204.405 303.445,199.405 302.5,194.5C 302.5,193.833 302.5,193.167 302.5,192.5C 303.483,188.702 303.817,184.702 303.5,180.5 Z"/></g>
<g><path style="opacity:1" fill="#8cb161" d="M 291.5,195.5 C 290.5,195.5 289.5,195.5 288.5,195.5C 288.5,197.5 288.5,199.5 288.5,201.5C 287.833,200.167 287.167,198.833 286.5,197.5C 286.5,195.833 286.5,194.167 286.5,192.5C 288.933,192.273 290.599,193.273 291.5,195.5 Z"/></g>
<g><path style="opacity:1" fill="#ecf8de" d="M 319.5,174.5 C 320.94,175.946 321.607,177.779 321.5,180C 321.133,186.835 318.799,192.835 314.5,198C 311.691,199.323 309.025,200.823 306.5,202.5C 310.164,198.668 313.664,194.668 317,190.5C 318.962,185.344 319.795,180.011 319.5,174.5 Z"/></g>
<g><path style="opacity:1" fill="#75a753" d="M 251.5,184.5 C 248.116,187.102 244.449,189.269 240.5,191C 233.948,192.272 227.615,194.106 221.5,196.5C 217.833,197.167 214.167,197.833 210.5,198.5C 210.833,197.833 211.167,197.167 211.5,196.5C 212.167,196.5 212.833,196.5 213.5,196.5C 226.277,192.807 238.944,188.807 251.5,184.5 Z"/></g>
<g><path style="opacity:1" fill="#6cb048" d="M 221.5,196.5 C 221.5,197.5 221.5,198.5 221.5,199.5C 224.865,198.764 228.198,198.43 231.5,198.5C 232.647,198.818 233.481,199.484 234,200.5C 238.413,199.368 242.913,199.201 247.5,200C 248.357,200.689 249.023,201.522 249.5,202.5C 246.553,203.321 243.553,203.821 240.5,204C 244.894,204.453 249.061,205.619 253,207.5C 256.64,206.159 258.974,207.493 260,211.5C 260.333,210.833 260.667,210.167 261,209.5C 261.497,211.81 261.663,214.143 261.5,216.5C 259.824,217.183 259.157,218.517 259.5,220.5C 254.915,221.013 250.582,220.346 246.5,218.5C 245.201,219.09 244.368,220.09 244,221.5C 243.667,220.167 243.333,218.833 243,217.5C 241.534,219.325 239.701,219.825 237.5,219C 238.711,218.107 238.711,217.274 237.5,216.5C 236.264,215.754 234.93,215.421 233.5,215.5C 233.417,220.17 231.417,221.337 227.5,219C 228.624,218.751 229.624,218.251 230.5,217.5C 228.216,213.219 225.216,209.552 221.5,206.5C 222.248,204.584 222.248,202.584 221.5,200.5C 219.319,200.284 217.653,201.117 216.5,203C 216.833,203.333 217.167,203.667 217.5,204C 214.207,205.608 210.873,205.775 207.5,204.5C 206.281,205.263 205.281,206.263 204.5,207.5C 203.583,206.873 202.583,206.539 201.5,206.5C 201.369,205.761 201.536,205.094 202,204.5C 204.352,202.97 206.519,201.303 208.5,199.5C 208.842,198.662 209.508,198.328 210.5,198.5C 214.167,197.833 217.833,197.167 221.5,196.5 Z"/></g>
<g><path style="opacity:1" fill="#e9f8e5" d="M 63.5,168.5 C 64.2719,169.694 65.2719,170.694 66.5,171.5C 67.1283,174.09 68.295,176.423 70,178.5C 70.5343,182.859 70.3676,187.192 69.5,191.5C 69.631,192.239 69.4643,192.906 69,193.5C 68.9016,190.478 68.0682,187.811 66.5,185.5C 64.3334,180.819 61.1667,176.819 57,173.5C 55.1118,185.71 59.2785,195.044 69.5,201.5C 70.262,207.516 70.762,213.516 71,219.5C 69.3215,211.421 64.8215,205.754 57.5,202.5C 56.4863,201.326 55.153,200.66 53.5,200.5C 54.0968,199.861 54.9302,199.528 56,199.5C 58.0865,200.418 60.2532,201.085 62.5,201.5C 62.6703,198.509 61.337,196.509 58.5,195.5C 53.7957,187.945 52.7957,179.945 55.5,171.5C 56,171.167 56.5,170.833 57,170.5C 61.6047,176.28 63.7714,175.614 63.5,168.5 Z"/></g>
<g><path style="opacity:1" fill="#59a250" d="M 88.5,197.5 C 88.5,198.167 88.5,198.833 88.5,199.5C 87.1092,201.96 85.9425,204.626 85,207.5C 81.9621,210.369 79.1288,213.369 76.5,216.5C 74.6921,215.082 74.0254,213.082 74.5,210.5C 75.6656,202.317 79.9989,196.317 87.5,192.5C 88.4519,194.045 88.7852,195.712 88.5,197.5 Z"/></g>
<g><path style="opacity:1" fill="#649e5b" d="M 53.5,200.5 C 55.153,200.66 56.4863,201.326 57.5,202.5C 56.4138,202.62 55.7472,203.287 55.5,204.5C 56.6295,209.601 58.6295,214.267 61.5,218.5C 56.1496,213.791 53.4829,207.791 53.5,200.5 Z"/></g>
<g><path style="opacity:1" fill="#72b143" d="M 291.5,195.5 C 296.724,198.279 299.724,202.612 300.5,208.5C 300.663,210.857 300.497,213.19 300,215.5C 295.83,211.847 292.33,207.847 289.5,203.5C 288.662,203.158 288.328,202.492 288.5,201.5C 288.5,199.5 288.5,197.5 288.5,195.5C 289.5,195.5 290.5,195.5 291.5,195.5 Z"/></g>
<g><path style="opacity:1" fill="#75a350" d="M 289.5,203.5 C 292.33,207.847 295.83,211.847 300,215.5C 300.497,213.19 300.663,210.857 300.5,208.5C 301.167,208.5 301.5,208.833 301.5,209.5C 301.5,211.833 301.5,214.167 301.5,216.5C 295.471,214.134 291.471,209.8 289.5,203.5 Z"/></g>
<g><path style="opacity:1" fill="#e6f5da" d="M 286.5,197.5 C 287.167,198.833 287.833,200.167 288.5,201.5C 288.328,202.492 288.662,203.158 289.5,203.5C 291.471,209.8 295.471,214.134 301.5,216.5C 301.5,214.167 301.5,211.833 301.5,209.5C 302.167,209.833 302.833,210.167 303.5,210.5C 303.384,213.86 303.051,217.193 302.5,220.5C 301.374,223.465 300.374,226.465 299.5,229.5C 299.279,232.392 298.446,235.059 297,237.5C 296.667,233.5 296.333,229.5 296,225.5C 295.303,223.416 294.136,221.749 292.5,220.5C 291.167,217.167 288.833,214.833 285.5,213.5C 286.183,211.824 287.517,211.157 289.5,211.5C 289.539,209.641 288.706,208.308 287,207.5C 286.502,204.183 286.335,200.85 286.5,197.5 Z"/></g>
<g><path style="opacity:1" fill="#e7f7e8" d="M 93.5,231.5 C 91.7328,233.938 90.3994,236.605 89.5,239.5C 88.0768,241.756 87.4101,244.256 87.5,247C 87.9897,251.3 88.9897,255.466 90.5,259.5C 90.5654,259.938 90.3988,260.272 90,260.5C 86.3465,254.861 83.5131,248.861 81.5,242.5C 88.8247,234.331 91.8247,224.664 90.5,213.5C 88.4862,213.392 86.8195,214.058 85.5,215.5C 85.4142,214.504 85.7476,213.671 86.5,213C 88.1341,212.506 89.8008,212.34 91.5,212.5C 91.8082,218.425 91.4749,224.259 90.5,230C 91.2438,231.039 92.2438,231.539 93.5,231.5 Z"/></g>
<g><path style="opacity:1" fill="#6d9869" d="M 74.5,210.5 C 74.0254,213.082 74.6921,215.082 76.5,216.5C 75.8333,217.833 74.8333,218.833 73.5,219.5C 73.19,216.287 73.5233,213.287 74.5,210.5 Z"/></g>
<g><path style="opacity:1" fill="#5caa4e" d="M 239.5,224.5 C 237.167,227.167 234.833,229.833 232.5,232.5C 229.767,235.239 226.767,237.573 223.5,239.5C 225.454,236.41 224.787,234.077 221.5,232.5C 220.289,233.274 220.289,234.107 221.5,235C 217.306,235.064 213.973,233.231 211.5,229.5C 210.28,228.289 209.113,228.289 208,229.5C 207.86,226.957 207.194,224.623 206,222.5C 204.312,223.325 204.145,224.325 205.5,225.5C 204.167,225.833 202.833,226.167 201.5,226.5C 197.627,225.892 193.961,224.726 190.5,223C 188.835,221.174 187.835,219.007 187.5,216.5C 191.303,215.2 194.97,213.533 198.5,211.5C 200.891,212.899 203.057,212.566 205,210.5C 208.372,213.593 211.872,213.927 215.5,211.5C 217.234,213.234 219.234,214.568 221.5,215.5C 217.652,215.225 216.986,216.725 219.5,220C 224.41,219.343 227.91,221.176 230,225.5C 232.86,223.708 236.026,223.375 239.5,224.5 Z"/></g>
<g><path style="opacity:1" fill="#eff9e6" d="M 312.5,221.5 C 313.833,219.833 315.167,218.167 316.5,216.5C 320.951,212.027 322.618,206.694 321.5,200.5C 317.807,202.008 314.474,204.008 311.5,206.5C 311.281,205.325 311.614,204.325 312.5,203.5C 315.112,202.221 317.445,200.555 319.5,198.5C 321.84,198.866 323.507,200.033 324.5,202C 323.655,205.379 322.655,208.713 321.5,212C 322.782,214.674 322.449,217.174 320.5,219.5C 319.914,219.291 319.414,218.957 319,218.5C 316.749,219.412 314.583,220.412 312.5,221.5 Z"/></g>
<g><path style="opacity:1" fill="#55a056" d="M 66.5,171.5 C 67.5,171.5 68.5,171.5 69.5,171.5C 69.3453,174.853 70.0119,175.186 71.5,172.5C 72.1667,172.833 72.8333,173.167 73.5,173.5C 72.8519,175.086 72.3519,176.753 72,178.5C 71.8333,184 71.6667,189.5 71.5,195C 71.3272,203.388 71.9938,211.555 73.5,219.5C 74.7386,225.985 76.572,232.318 79,238.5C 79.3333,234.5 79.6667,230.5 80,226.5C 80.0995,224.347 80.9328,222.681 82.5,221.5C 82.9752,219.216 83.9752,217.216 85.5,215.5C 86.8195,214.058 88.4862,213.392 90.5,213.5C 91.8247,224.664 88.8247,234.331 81.5,242.5C 80.5416,242.953 79.7083,243.619 79,244.5C 77.0438,244.216 74.8771,244.216 72.5,244.5C 72.6567,243.127 72.49,241.793 72,240.5C 70.8904,242.037 69.3904,242.703 67.5,242.5C 66.8333,242.167 66.1667,241.833 65.5,241.5C 61.6989,238.042 58.6989,234.042 56.5,229.5C 56.0941,227.891 56.0941,226.557 56.5,225.5C 66.7584,227.259 73.9251,232.925 78,242.5C 77.095,236.954 75.2616,231.621 72.5,226.5C 70.0901,224.628 67.4234,223.295 64.5,222.5C 63.5,221.167 62.5,219.833 61.5,218.5C 58.6295,214.267 56.6295,209.601 55.5,204.5C 55.7472,203.287 56.4138,202.62 57.5,202.5C 64.8215,205.754 69.3215,211.421 71,219.5C 70.762,213.516 70.262,207.516 69.5,201.5C 70.8333,198.167 70.8333,194.833 69.5,191.5C 70.3676,187.192 70.5343,182.859 70,178.5C 68.295,176.423 67.1283,174.09 66.5,171.5 Z"/></g>
<g><path style="opacity:1" fill="#fbfbfa" d="M 299.5,229.5 C 298.485,223.674 295.485,218.841 290.5,215C 291.593,213.635 292.926,213.301 294.5,214C 296.32,215.805 297.486,217.972 298,220.5C 298.414,220.043 298.914,219.709 299.5,219.5C 299.976,222.74 299.976,226.073 299.5,229.5 Z"/></g>
<g><path style="opacity:1" fill="#e7f7e3" d="M 88.5,199.5 C 87.9445,206.964 84.6112,212.631 78.5,216.5C 76.585,218.071 75.585,220.071 75.5,222.5C 77.7604,221.861 79.7604,220.694 81.5,219C 82.3366,217.989 82.67,216.822 82.5,215.5C 83.5,215.5 84.5,215.5 85.5,215.5C 83.9752,217.216 82.9752,219.216 82.5,221.5C 80.9328,222.681 80.0995,224.347 80,226.5C 79.6667,230.5 79.3333,234.5 79,238.5C 76.572,232.318 74.7386,225.985 73.5,219.5C 74.8333,218.833 75.8333,217.833 76.5,216.5C 79.1288,213.369 81.9621,210.369 85,207.5C 85.9425,204.626 87.1092,201.96 88.5,199.5 Z"/></g>
<g><path style="opacity:1" fill="#e7f8e0" d="M 266.5,216.5 C 267.207,222.727 265.207,227.727 260.5,231.5C 260.5,230.833 260.5,230.167 260.5,229.5C 262.5,225.167 264.5,220.833 266.5,216.5 Z"/></g>
<g><path style="opacity:1" fill="#75ae47" d="M 319.5,174.5 C 319.795,180.011 318.962,185.344 317,190.5C 313.664,194.668 310.164,198.668 306.5,202.5C 305.172,207.637 304.672,212.97 305,218.5C 306.454,215.929 307.62,213.262 308.5,210.5C 309.5,209.167 310.5,207.833 311.5,206.5C 314.474,204.008 317.807,202.008 321.5,200.5C 322.618,206.694 320.951,212.027 316.5,216.5C 314.883,217.038 313.216,217.371 311.5,217.5C 310.134,221.699 307.134,223.699 302.5,223.5C 302.5,222.5 302.5,221.5 302.5,220.5C 303.051,217.193 303.384,213.86 303.5,210.5C 303.5,210.167 303.5,209.833 303.5,209.5C 304.167,203.167 304.833,196.833 305.5,190.5C 307.712,186.429 310.212,182.429 313,178.5C 315.069,176.915 317.236,175.581 319.5,174.5 Z"/></g>
<g><path style="opacity:1" fill="#d4eec3" d="M 306.5,202.5 C 306.335,205.518 306.502,208.518 307,211.5C 307.383,210.944 307.883,210.611 308.5,210.5C 307.62,213.262 306.454,215.929 305,218.5C 304.672,212.97 305.172,207.637 306.5,202.5 Z"/></g>
<g><path style="opacity:1" fill="#69ad4d" d="M 268.5,178.5 C 269.499,186.811 269.665,195.144 269,203.5C 267.334,207.663 266.501,211.997 266.5,216.5C 264.5,220.833 262.5,225.167 260.5,229.5C 259.584,229.982 258.584,230.315 257.5,230.5C 255.194,229.353 253.027,228.02 251,226.5C 250.167,226.833 249.333,227.167 248.5,227.5C 249.5,229.833 251.167,231.5 253.5,232.5C 254.452,234.045 254.785,235.712 254.5,237.5C 253.167,237.5 251.833,237.5 250.5,237.5C 250.698,234.23 249.198,232.23 246,231.5C 244.5,233.667 243,235.833 241.5,238C 241.833,238.333 242.167,238.667 242.5,239C 239.457,240.055 236.457,240.222 233.5,239.5C 232.614,238.675 232.281,237.675 232.5,236.5C 233.167,235.5 233.833,234.5 234.5,233.5C 237.766,230.762 239.933,227.429 241,223.5C 240.617,224.056 240.117,224.389 239.5,224.5C 236.026,223.375 232.86,223.708 230,225.5C 227.91,221.176 224.41,219.343 219.5,220C 216.986,216.725 217.652,215.225 221.5,215.5C 219.234,214.568 217.234,213.234 215.5,211.5C 211.872,213.927 208.372,213.593 205,210.5C 203.057,212.566 200.891,212.899 198.5,211.5C 194.97,213.533 191.303,215.2 187.5,216.5C 187.062,216.565 186.728,216.399 186.5,216C 188.5,214 190.5,212 192.5,210C 194.833,209.667 197.167,209.333 199.5,209C 200.066,208.005 200.733,207.172 201.5,206.5C 202.583,206.539 203.583,206.873 204.5,207.5C 205.281,206.263 206.281,205.263 207.5,204.5C 210.873,205.775 214.207,205.608 217.5,204C 217.167,203.667 216.833,203.333 216.5,203C 217.653,201.117 219.319,200.284 221.5,200.5C 222.248,202.584 222.248,204.584 221.5,206.5C 225.216,209.552 228.216,213.219 230.5,217.5C 229.624,218.251 228.624,218.751 227.5,219C 231.417,221.337 233.417,220.17 233.5,215.5C 234.93,215.421 236.264,215.754 237.5,216.5C 238.711,217.274 238.711,218.107 237.5,219C 239.701,219.825 241.534,219.325 243,217.5C 243.333,218.833 243.667,220.167 244,221.5C 244.368,220.09 245.201,219.09 246.5,218.5C 250.582,220.346 254.915,221.013 259.5,220.5C 259.157,218.517 259.824,217.183 261.5,216.5C 261.281,217.675 261.614,218.675 262.5,219.5C 266.492,205.768 267.659,191.768 266,177.5C 265.586,177.043 265.086,176.709 264.5,176.5C 263.378,177.63 262.044,178.297 260.5,178.5C 260.5,178.167 260.5,177.833 260.5,177.5C 262.388,176.06 264.055,174.394 265.5,172.5C 266.801,174.444 267.801,176.444 268.5,178.5 Z"/></g>
<g><path style="opacity:1" fill="#e7f7e7" d="M 64.5,222.5 C 67.4234,223.295 70.0901,224.628 72.5,226.5C 75.2616,231.621 77.095,236.954 78,242.5C 73.9251,232.925 66.7584,227.259 56.5,225.5C 56.0941,226.557 56.0941,227.891 56.5,229.5C 54.744,228.448 54.0773,226.781 54.5,224.5C 58.3293,225.069 61.6627,224.402 64.5,222.5 Z"/></g>
<g><path style="opacity:1" fill="#4ba64d" d="M 82.5,221.5 C 84.1417,219.919 86.1417,219.253 88.5,219.5C 87.5013,224.06 86.6679,228.727 86,233.5C 85.0922,235.439 83.5922,236.439 81.5,236.5C 81.6762,231.511 82.0096,226.511 82.5,221.5 Z"/></g>
<g><path style="opacity:1" fill="#54a654" d="M 208.5,199.5 C 206.519,201.303 204.352,202.97 202,204.5C 201.536,205.094 201.369,205.761 201.5,206.5C 200.733,207.172 200.066,208.005 199.5,209C 197.167,209.333 194.833,209.667 192.5,210C 190.5,212 188.5,214 186.5,216C 186.728,216.399 187.062,216.565 187.5,216.5C 187.835,219.007 188.835,221.174 190.5,223C 193.961,224.726 197.627,225.892 201.5,226.5C 202.833,226.167 204.167,225.833 205.5,225.5C 204.145,224.325 204.312,223.325 206,222.5C 207.194,224.623 207.86,226.957 208,229.5C 209.113,228.289 210.28,228.289 211.5,229.5C 213.973,233.231 217.306,235.064 221.5,235C 220.289,234.107 220.289,233.274 221.5,232.5C 224.787,234.077 225.454,236.41 223.5,239.5C 220.197,243.156 216.197,245.822 211.5,247.5C 209.742,247.877 208.075,248.544 206.5,249.5C 202.145,246.413 197.645,243.746 193,241.5C 188.934,242.464 184.767,242.797 180.5,242.5C 180.657,241.127 180.49,239.793 180,238.5C 177.822,237.353 176.322,235.687 175.5,233.5C 176.467,231.238 177.134,228.905 177.5,226.5C 184.426,213.573 194.759,204.573 208.5,199.5 Z"/></g>
<g><path style="opacity:1" fill="#c6ecb5" d="M 234.5,233.5 C 234.158,232.662 233.492,232.328 232.5,232.5C 234.833,229.833 237.167,227.167 239.5,224.5C 240.117,224.389 240.617,224.056 241,223.5C 239.933,227.429 237.766,230.762 234.5,233.5 Z"/></g>
<g><path style="opacity:1" fill="#68ad46" d="M 285.5,213.5 C 288.833,214.833 291.167,217.167 292.5,220.5C 293.3,222.607 293.967,224.774 294.5,227C 293.461,229.626 293.461,232.293 294.5,235C 294.333,236.167 294.167,237.333 294,238.5C 293.329,237.748 292.496,237.414 291.5,237.5C 286.99,231.324 284.99,224.324 285.5,216.5C 285.5,215.5 285.5,214.5 285.5,213.5 Z"/></g>
<g><path style="opacity:1" fill="#d4efc3" d="M 302.5,227.5 C 302.077,229.781 302.744,231.448 304.5,232.5C 302.095,235.634 299.928,238.968 298,242.5C 297.601,242.272 297.435,241.938 297.5,241.5C 299.18,236.743 300.847,232.077 302.5,227.5 Z"/></g>
<g><path style="opacity:1" fill="#66aa49" d="M 312.5,239.5 C 307.891,243.374 302.558,245.707 296.5,246.5C 294.82,244.274 295.153,242.607 297.5,241.5C 297.435,241.938 297.601,242.272 298,242.5C 299.928,238.968 302.095,235.634 304.5,232.5C 308.581,228.294 313.581,225.961 319.5,225.5C 318.683,230.966 316.35,235.633 312.5,239.5 Z"/></g>
<g><path style="opacity:1" fill="#e7f5e0" d="M 285.5,216.5 C 284.99,224.324 286.99,231.324 291.5,237.5C 292.876,239.082 293.876,240.915 294.5,243C 292.549,248.397 290.216,253.564 287.5,258.5C 287.351,253.026 287.184,247.36 287,241.5C 286.347,238.861 285.18,236.527 283.5,234.5C 282.878,233.373 282.045,232.373 281,231.5C 280.155,233.611 279.322,235.611 278.5,237.5C 277.641,231.191 279.807,229.524 285,232.5C 285.167,231.833 285.333,231.167 285.5,230.5C 283.041,226.198 282.041,221.531 282.5,216.5C 283.5,216.5 284.5,216.5 285.5,216.5 Z"/></g>
<g><path style="opacity:1" fill="#6ba254" d="M 316.5,216.5 C 315.167,218.167 313.833,219.833 312.5,221.5C 308.799,223.012 305.466,225.012 302.5,227.5C 300.847,232.077 299.18,236.743 297.5,241.5C 295.153,242.607 294.82,244.274 296.5,246.5C 293.597,250.63 290.93,254.963 288.5,259.5C 287.833,259.5 287.5,259.167 287.5,258.5C 290.216,253.564 292.549,248.397 294.5,243C 293.876,240.915 292.876,239.082 291.5,237.5C 292.496,237.414 293.329,237.748 294,238.5C 294.167,237.333 294.333,236.167 294.5,235C 293.461,232.293 293.461,229.626 294.5,227C 293.967,224.774 293.3,222.607 292.5,220.5C 294.136,221.749 295.303,223.416 296,225.5C 296.333,229.5 296.667,233.5 297,237.5C 298.446,235.059 299.279,232.392 299.5,229.5C 300.374,226.465 301.374,223.465 302.5,220.5C 302.5,221.5 302.5,222.5 302.5,223.5C 307.134,223.699 310.134,221.699 311.5,217.5C 313.216,217.371 314.883,217.038 316.5,216.5 Z"/></g>
<g><path style="opacity:1" fill="#6aa055" d="M 283.5,234.5 C 282.5,234.5 281.5,234.5 280.5,234.5C 280.5,240.167 280.5,245.833 280.5,251.5C 279.778,251.082 279.278,250.416 279,249.5C 278.501,245.848 278.335,242.182 278.5,238.5C 278.5,238.167 278.5,237.833 278.5,237.5C 279.322,235.611 280.155,233.611 281,231.5C 282.045,232.373 282.878,233.373 283.5,234.5 Z"/></g>
<g><path style="opacity:1" fill="#48965d" d="M 174.5,232.5 C 172.336,241.406 170.669,250.406 169.5,259.5C 176.873,258.824 184.207,257.824 191.5,256.5C 184.193,259.235 176.527,260.568 168.5,260.5C 168.236,251.218 169.736,242.218 173,233.5C 173.383,232.944 173.883,232.611 174.5,232.5 Z"/></g>
<g><path style="opacity:1" fill="#58a851" d="M 260.5,229.5 C 260.5,230.167 260.5,230.833 260.5,231.5C 256.605,238.396 251.939,244.729 246.5,250.5C 243.532,250.626 241.532,252.126 240.5,255C 239.552,255.483 238.552,255.649 237.5,255.5C 237.5,256.5 237.5,257.5 237.5,258.5C 234.844,260.568 231.844,261.901 228.5,262.5C 225.61,262.473 224.61,261.307 225.5,259C 232.138,259.878 232.804,258.378 227.5,254.5C 214.889,254.867 214.389,252.201 226,246.5C 227.009,244.975 227.509,243.308 227.5,241.5C 229.386,240.07 231.053,238.403 232.5,236.5C 232.281,237.675 232.614,238.675 233.5,239.5C 236.457,240.222 239.457,240.055 242.5,239C 242.167,238.667 241.833,238.333 241.5,238C 243,235.833 244.5,233.667 246,231.5C 249.198,232.23 250.698,234.23 250.5,237.5C 251.833,237.5 253.167,237.5 254.5,237.5C 254.785,235.712 254.452,234.045 253.5,232.5C 251.167,231.5 249.5,229.833 248.5,227.5C 249.333,227.167 250.167,226.833 251,226.5C 253.027,228.02 255.194,229.353 257.5,230.5C 258.584,230.315 259.584,229.982 260.5,229.5 Z"/></g>
<g><path style="opacity:1" fill="#42a056" d="M 90.5,259.5 C 88.9897,255.466 87.9897,251.3 87.5,247C 87.4101,244.256 88.0768,241.756 89.5,239.5C 91.0957,238.004 92.7623,236.837 94.5,236C 97.8377,244.766 96.5043,252.599 90.5,259.5 Z"/></g>
<g><path style="opacity:1" fill="#42a259" d="M 177.5,226.5 C 177.134,228.905 176.467,231.238 175.5,233.5C 176.322,235.687 177.822,237.353 180,238.5C 180.49,239.793 180.657,241.127 180.5,242.5C 184.767,242.797 188.934,242.464 193,241.5C 197.645,243.746 202.145,246.413 206.5,249.5C 208.075,248.544 209.742,247.877 211.5,247.5C 205.604,252.029 198.938,255.029 191.5,256.5C 184.207,257.824 176.873,258.824 169.5,259.5C 170.669,250.406 172.336,241.406 174.5,232.5C 174.992,230.181 175.992,228.181 177.5,226.5 Z"/></g>
<g><path style="opacity:1" fill="#dcf5df" d="M 65.5,241.5 C 66.1667,241.833 66.8333,242.167 67.5,242.5C 71.5357,244.775 75.869,246.608 80.5,248C 83.3747,252.917 86.3747,257.751 89.5,262.5C 89.3333,262.833 89.1667,263.167 89,263.5C 83.3605,254.215 75.1938,250.548 64.5,252.5C 65.4667,255.129 67.1334,257.129 69.5,258.5C 70.1667,259.5 70.8333,260.5 71.5,261.5C 64.721,260.2 62.3877,256.2 64.5,249.5C 64.8333,249.167 65.1667,248.833 65.5,248.5C 70.4073,250.152 75.4073,251.485 80.5,252.5C 80.67,251.178 80.3366,250.011 79.5,249C 75.5733,247.788 71.5733,246.788 67.5,246C 66.4178,244.67 65.7512,243.17 65.5,241.5 Z"/></g>
<g><path style="opacity:1" fill="#eef8ea" d="M 278.5,238.5 C 278.335,242.182 278.501,245.848 279,249.5C 279.278,250.416 279.778,251.082 280.5,251.5C 281.5,254.833 282.5,258.167 283.5,261.5C 283.002,264.326 281.669,266.66 279.5,268.5C 278.5,268.5 277.5,268.5 276.5,268.5C 276.81,265.287 276.477,262.287 275.5,259.5C 275.5,258.167 275.5,256.833 275.5,255.5C 277.245,258.403 278.245,258.07 278.5,254.5C 277.198,250.757 276.198,246.924 275.5,243C 275.05,240.374 276.05,238.874 278.5,238.5 Z"/></g>
<g><path style="opacity:1" fill="#45a257" d="M 227.5,241.5 C 227.509,243.308 227.009,244.975 226,246.5C 214.389,252.201 214.889,254.867 227.5,254.5C 232.804,258.378 232.138,259.878 225.5,259C 224.61,261.307 225.61,262.473 228.5,262.5C 227.791,263.404 226.791,263.737 225.5,263.5C 225.371,265.216 225.038,266.883 224.5,268.5C 224.167,268.5 223.833,268.5 223.5,268.5C 220.813,268.336 218.146,268.503 215.5,269C 212.564,272.979 208.897,273.645 204.5,271C 205.938,270.781 207.271,270.281 208.5,269.5C 206.5,268.833 204.5,268.167 202.5,267.5C 210.509,266.918 211.176,264.918 204.5,261.5C 207.512,259.777 209.845,257.444 211.5,254.5C 217.161,250.656 222.494,246.323 227.5,241.5 Z"/></g>
<g><path style="opacity:1" fill="#5ea84d" d="M 283.5,234.5 C 285.18,236.527 286.347,238.861 287,241.5C 287.184,247.36 287.351,253.026 287.5,258.5C 287.5,259.167 287.833,259.5 288.5,259.5C 288.435,259.938 288.601,260.272 289,260.5C 291.106,257.882 293.606,255.882 296.5,254.5C 300.195,253.54 303.861,253.54 307.5,254.5C 305.995,255.842 305.328,257.508 305.5,259.5C 302.839,262.502 299.505,264.502 295.5,265.5C 291.833,265.5 288.167,265.5 284.5,265.5C 284.768,263.901 284.434,262.568 283.5,261.5C 282.5,258.167 281.5,254.833 280.5,251.5C 280.5,245.833 280.5,240.167 280.5,234.5C 281.5,234.5 282.5,234.5 283.5,234.5 Z"/></g>
<g><path style="opacity:1" fill="#53a94e" d="M 274.5,254.5 C 274.5,254.833 274.5,255.167 274.5,255.5C 274.823,259.226 274.489,262.893 273.5,266.5C 272.914,266.291 272.414,265.957 272,265.5C 270.686,281.356 269.186,281.356 267.5,265.5C 266.733,260.404 268.066,256.071 271.5,252.5C 272.518,253.193 273.518,253.859 274.5,254.5 Z"/></g>
<g><path style="opacity:1" fill="#ecf8ee" d="M 232.5,232.5 C 233.492,232.328 234.158,232.662 234.5,233.5C 233.833,234.5 233.167,235.5 232.5,236.5C 231.053,238.403 229.386,240.07 227.5,241.5C 222.494,246.323 217.161,250.656 211.5,254.5C 203.009,259.391 194.009,263.224 184.5,266C 174.562,267.634 164.562,268.468 154.5,268.5C 154.167,268.5 153.833,268.5 153.5,268.5C 148.726,266.775 143.726,265.942 138.5,266C 141.02,267.697 143.353,269.53 145.5,271.5C 140.889,270.87 137.889,268.37 136.5,264C 138.473,263.505 140.473,263.338 142.5,263.5C 145.259,265.293 148.259,265.793 151.5,265C 149.941,264.02 148.274,263.187 146.5,262.5C 147.5,262.167 148.5,261.833 149.5,261.5C 154.164,262.358 158.664,263.691 163,265.5C 165.668,264.609 167.501,262.943 168.5,260.5C 176.527,260.568 184.193,259.235 191.5,256.5C 198.938,255.029 205.604,252.029 211.5,247.5C 216.197,245.822 220.197,243.156 223.5,239.5C 226.767,237.573 229.767,235.239 232.5,232.5 Z"/></g>
<g><path style="opacity:1" fill="#539a5d" d="M 246.5,250.5 C 240.063,257.605 232.73,263.605 224.5,268.5C 225.038,266.883 225.371,265.216 225.5,263.5C 226.791,263.737 227.791,263.404 228.5,262.5C 231.844,261.901 234.844,260.568 237.5,258.5C 237.5,257.5 237.5,256.5 237.5,255.5C 238.552,255.649 239.552,255.483 240.5,255C 241.532,252.126 243.532,250.626 246.5,250.5 Z"/></g>
<g><path style="opacity:1" fill="#45975a" d="M 93.5,231.5 C 94.9663,232.347 95.7996,233.68 96,235.5C 96.8934,238.433 97.3934,241.433 97.5,244.5C 96.7511,250.582 95.0844,256.415 92.5,262C 94.9836,267.136 98.317,271.636 102.5,275.5C 103.6,276.605 104.267,277.938 104.5,279.5C 100.336,276.168 96.6689,272.335 93.5,268C 92.552,267.517 91.552,267.351 90.5,267.5C 83.4053,267.714 77.072,265.714 71.5,261.5C 70.8333,260.5 70.1667,259.5 69.5,258.5C 67.1334,257.129 65.4667,255.129 64.5,252.5C 75.1938,250.548 83.3605,254.215 89,263.5C 89.1667,263.167 89.3333,262.833 89.5,262.5C 86.3747,257.751 83.3747,252.917 80.5,248C 75.869,246.608 71.5357,244.775 67.5,242.5C 69.3904,242.703 70.8904,242.037 72,240.5C 72.49,241.793 72.6567,243.127 72.5,244.5C 74.8771,244.216 77.0438,244.216 79,244.5C 79.7083,243.619 80.5416,242.953 81.5,242.5C 83.5131,248.861 86.3465,254.861 90,260.5C 90.3988,260.272 90.5654,259.938 90.5,259.5C 96.5043,252.599 97.8377,244.766 94.5,236C 92.7623,236.837 91.0957,238.004 89.5,239.5C 90.3994,236.605 91.7328,233.938 93.5,231.5 Z"/></g>
<g><path style="opacity:1" fill="#39a456" d="M 69.5,258.5 C 69.1412,256.629 68.1412,255.129 66.5,254C 69.9643,253.183 73.2976,253.517 76.5,255C 75.0072,256.156 75.1739,256.99 77,257.5C 78.4397,256.852 79.9397,256.519 81.5,256.5C 81.5,257.833 81.5,259.167 81.5,260.5C 77.277,260.661 73.277,259.994 69.5,258.5 Z"/></g>
<g><path style="opacity:1" fill="#eefae7" d="M 312.5,239.5 C 312.703,241.39 312.037,242.89 310.5,244C 306.892,244.877 303.559,246.377 300.5,248.5C 304.429,249.278 308.263,249.611 312,249.5C 312.719,256.253 310.052,261.253 304,264.5C 303.667,265.5 303.333,266.5 303,267.5C 300.619,266.565 298.119,266.232 295.5,266.5C 295.5,266.167 295.5,265.833 295.5,265.5C 299.505,264.502 302.839,262.502 305.5,259.5C 307.841,257.344 309.841,254.844 311.5,252C 306.068,250.986 301.068,251.819 296.5,254.5C 293.606,255.882 291.106,257.882 289,260.5C 288.601,260.272 288.435,259.938 288.5,259.5C 290.93,254.963 293.597,250.63 296.5,246.5C 302.558,245.707 307.891,243.374 312.5,239.5 Z"/></g>
<g><path style="opacity:1" fill="#6ba057" d="M 305.5,259.5 C 305.328,257.508 305.995,255.842 307.5,254.5C 303.861,253.54 300.195,253.54 296.5,254.5C 301.068,251.819 306.068,250.986 311.5,252C 309.841,254.844 307.841,257.344 305.5,259.5 Z"/></g>
<g><path style="opacity:1" fill="#def5e3" d="M 93.5,231.5 C 93.7352,230.903 94.2352,230.57 95,230.5C 96.221,231.272 97.221,232.272 98,233.5C 98.1667,236.5 98.3333,239.5 98.5,242.5C 97.6472,249.923 96.4805,257.256 95,264.5C 96.5067,265.505 97.6733,266.838 98.5,268.5C 98.8333,268.167 99.1667,267.833 99.5,267.5C 98.205,264.014 98.205,260.514 99.5,257C 99.0946,256.055 98.428,255.388 97.5,255C 105.302,244.211 109.635,245.711 110.5,259.5C 108.776,255.858 106.942,252.192 105,248.5C 99.6383,256.849 99.1383,265.516 103.5,274.5C 103.376,275.107 103.043,275.44 102.5,275.5C 98.317,271.636 94.9836,267.136 92.5,262C 95.0844,256.415 96.7511,250.582 97.5,244.5C 97.3934,241.433 96.8934,238.433 96,235.5C 95.7996,233.68 94.9663,232.347 93.5,231.5 Z"/></g>
<g><path style="opacity:1" fill="#e2f8e3" d="M 269.5,250.5 C 264.946,259.662 264.279,269.162 267.5,279C 267.137,281.192 266.137,283.026 264.5,284.5C 260.975,285.759 257.975,287.759 255.5,290.5C 254.153,291.028 252.819,291.195 251.5,291C 255.93,286.958 258.93,282.125 260.5,276.5C 260.5,278.833 260.5,281.167 260.5,283.5C 262.818,283.343 264.484,282.176 265.5,280C 263.23,271.786 263.23,263.62 265.5,255.5C 266.489,253.414 267.822,251.747 269.5,250.5 Z"/></g>
<g><path style="opacity:1" fill="#2fa05b" d="M 191.5,278.5 C 183.1,278.638 174.767,277.971 166.5,276.5C 166.291,275.914 165.957,275.414 165.5,275C 160.277,274.98 155.277,273.98 150.5,272C 149.643,271.311 148.977,270.478 148.5,269.5C 150.045,268.548 151.712,268.215 153.5,268.5C 153.833,268.5 154.167,268.5 154.5,268.5C 164.08,269.373 173.746,269.373 183.5,268.5C 189.913,266.977 195.58,264.977 200.5,262.5C 201.5,262.833 202.5,263.167 203.5,263.5C 203.291,264.086 202.957,264.586 202.5,265C 200.19,265.497 197.857,265.663 195.5,265.5C 195.232,268.119 195.565,270.619 196.5,273C 191.913,273.799 187.413,273.632 183,272.5C 182.308,273.025 181.808,273.692 181.5,274.5C 185.796,275.328 190.129,275.828 194.5,276C 195.167,276.333 195.833,276.667 196.5,277C 194.618,277.198 192.952,277.698 191.5,278.5 Z"/></g>
<g><path style="opacity:1" fill="#cff0ca" d="M 275.5,259.5 C 276.477,262.287 276.81,265.287 276.5,268.5C 277.5,268.5 278.5,268.5 279.5,268.5C 277.856,270.481 276.19,272.481 274.5,274.5C 274.167,273.833 273.833,273.167 273.5,272.5C 275.185,268.345 275.851,264.012 275.5,259.5 Z"/></g>
<g><path style="opacity:1" fill="#39995a" d="M 211.5,254.5 C 209.845,257.444 207.512,259.777 204.5,261.5C 211.176,264.918 210.509,266.918 202.5,267.5C 204.5,268.167 206.5,268.833 208.5,269.5C 207.271,270.281 205.938,270.781 204.5,271C 208.897,273.645 212.564,272.979 215.5,269C 218.146,268.503 220.813,268.336 223.5,268.5C 214.444,274.274 204.444,277.607 193.5,278.5C 192.833,278.5 192.167,278.5 191.5,278.5C 192.952,277.698 194.618,277.198 196.5,277C 195.833,276.667 195.167,276.333 194.5,276C 190.129,275.828 185.796,275.328 181.5,274.5C 181.808,273.692 182.308,273.025 183,272.5C 187.413,273.632 191.913,273.799 196.5,273C 195.565,270.619 195.232,268.119 195.5,265.5C 197.857,265.663 200.19,265.497 202.5,265C 202.957,264.586 203.291,264.086 203.5,263.5C 202.5,263.167 201.5,262.833 200.5,262.5C 195.58,264.977 189.913,266.977 183.5,268.5C 173.746,269.373 164.08,269.373 154.5,268.5C 164.562,268.468 174.562,267.634 184.5,266C 194.009,263.224 203.009,259.391 211.5,254.5 Z"/></g>
<g><path style="opacity:1" fill="#e7f9e5" d="M 291.5,267.5 C 287.581,268.669 283.915,270.503 280.5,273C 283.697,273.001 286.863,272.501 290,271.5C 292.802,271.32 294.969,272.32 296.5,274.5C 289.432,272.914 282.765,273.914 276.5,277.5C 275.475,277.103 275.308,276.437 276,275.5C 278.54,273.295 280.707,270.795 282.5,268C 285.482,267.502 288.482,267.335 291.5,267.5 Z"/></g>
<g><path style="opacity:1" fill="#3a9461" d="M 153.5,268.5 C 151.712,268.215 150.045,268.548 148.5,269.5C 148.977,270.478 149.643,271.311 150.5,272C 155.277,273.98 160.277,274.98 165.5,275C 165.957,275.414 166.291,275.914 166.5,276.5C 174.767,277.971 183.1,278.638 191.5,278.5C 192.167,278.5 192.833,278.5 193.5,278.5C 176.817,281.516 160.817,279.183 145.5,271.5C 143.353,269.53 141.02,267.697 138.5,266C 143.726,265.942 148.726,266.775 153.5,268.5 Z"/></g>
<g><path style="opacity:1" fill="#39985b" d="M 104.5,286.5 C 99.8075,286.46 95.1408,286.127 90.5,285.5C 85.7926,283.128 81.7926,279.795 78.5,275.5C 83.8023,274.337 89.1357,274.171 94.5,275C 99.772,277.941 104.772,281.274 109.5,285C 107.618,285.198 105.952,285.698 104.5,286.5 Z"/></g>
<g><path style="opacity:1" fill="#5fa15f" d="M 274.5,254.5 C 273.518,253.859 272.518,253.193 271.5,252.5C 268.066,256.071 266.733,260.404 267.5,265.5C 269.186,281.356 270.686,281.356 272,265.5C 272.414,265.957 272.914,266.291 273.5,266.5C 274.489,262.893 274.823,259.226 274.5,255.5C 274.833,255.5 275.167,255.5 275.5,255.5C 275.5,256.833 275.5,258.167 275.5,259.5C 275.851,264.012 275.185,268.345 273.5,272.5C 273.833,273.167 274.167,273.833 274.5,274.5C 276.19,272.481 277.856,270.481 279.5,268.5C 281.669,266.66 283.002,264.326 283.5,261.5C 284.434,262.568 284.768,263.901 284.5,265.5C 288.167,265.5 291.833,265.5 295.5,265.5C 295.5,265.833 295.5,266.167 295.5,266.5C 293.901,266.232 292.568,266.566 291.5,267.5C 288.482,267.335 285.482,267.502 282.5,268C 280.707,270.795 278.54,273.295 276,275.5C 275.308,276.437 275.475,277.103 276.5,277.5C 275.185,279.135 275.185,280.801 276.5,282.5C 275.271,283.281 273.938,283.781 272.5,284C 275.393,285.149 278.393,285.649 281.5,285.5C 275.99,286.582 270.323,286.582 264.5,285.5C 264.5,285.167 264.5,284.833 264.5,284.5C 266.137,283.026 267.137,281.192 267.5,279C 264.279,269.162 264.946,259.662 269.5,250.5C 272.698,249.392 274.365,250.726 274.5,254.5 Z"/></g>
<g><path style="opacity:1" fill="#54a354" d="M 296.5,274.5 C 296.833,274.5 297.167,274.5 297.5,274.5C 295.737,278.099 293.07,280.932 289.5,283C 287.091,284.707 284.425,285.54 281.5,285.5C 278.393,285.649 275.393,285.149 272.5,284C 273.938,283.781 275.271,283.281 276.5,282.5C 275.185,280.801 275.185,279.135 276.5,277.5C 282.765,273.914 289.432,272.914 296.5,274.5 Z"/></g>
<g><path style="opacity:1" fill="#e5f6ea" d="M 118.5,262.5 C 120.564,263.058 122.23,264.225 123.5,266C 125.606,271.23 127.939,276.397 130.5,281.5C 133.456,270.498 137.123,270.165 141.5,280.5C 139.704,279.207 138.037,277.707 136.5,276C 135.552,275.517 134.552,275.351 133.5,275.5C 131.993,286.65 135.993,295.15 145.5,301C 144.906,301.464 144.239,301.631 143.5,301.5C 138.52,299.256 133.686,296.59 129,293.5C 128.042,288.877 127.375,284.21 127,279.5C 126.428,275.837 125.262,272.503 123.5,269.5C 122.079,266.991 120.412,264.657 118.5,262.5 Z"/></g>
<g><path style="opacity:1" fill="#448e57" d="M 240.5,275.5 C 241.787,276.871 242.453,278.705 242.5,281C 242.494,283.033 242.161,284.866 241.5,286.5C 241.817,283.428 241.484,280.428 240.5,277.5C 232.82,282.848 228.487,290.182 227.5,299.5C 228.5,299.5 229.5,299.5 230.5,299.5C 230.167,300.167 229.833,300.833 229.5,301.5C 228.5,301.5 227.5,301.5 226.5,301.5C 226.5,300.5 226.5,299.5 226.5,298.5C 226.5,297.167 226.5,295.833 226.5,294.5C 228.943,286.649 233.61,280.315 240.5,275.5 Z"/></g>
<g><path style="opacity:1" fill="#3d9f58" d="M 241.5,286.5 C 239.659,292.344 235.992,296.677 230.5,299.5C 229.5,299.5 228.5,299.5 227.5,299.5C 228.487,290.182 232.82,282.848 240.5,277.5C 241.484,280.428 241.817,283.428 241.5,286.5 Z"/></g>
<g><path style="opacity:1" fill="#51825c" d="M 264.5,284.5 C 264.5,284.833 264.5,285.167 264.5,285.5C 262.142,287.678 259.475,289.345 256.5,290.5C 256.167,290.5 255.833,290.5 255.5,290.5C 257.975,287.759 260.975,285.759 264.5,284.5 Z"/></g>
<g><path style="opacity:1" fill="#d7f5e2" d="M 90.5,267.5 C 91.552,267.351 92.552,267.517 93.5,268C 96.6689,272.335 100.336,276.168 104.5,279.5C 109.315,283.47 114.315,287.303 119.5,291C 115.157,290.236 110.824,290.403 106.5,291.5C 106.937,289.926 107.937,288.759 109.5,288C 107.846,287.392 106.179,286.892 104.5,286.5C 105.952,285.698 107.618,285.198 109.5,285C 104.772,281.274 99.772,277.941 94.5,275C 89.1357,274.171 83.8023,274.337 78.5,275.5C 81.7926,279.795 85.7926,283.128 90.5,285.5C 88.8008,285.66 87.1341,285.494 85.5,285C 83.3529,282.763 81.0196,280.763 78.5,279C 77.5769,276.959 77.2436,274.792 77.5,272.5C 83.2055,272.829 88.8722,272.495 94.5,271.5C 92.9208,270.333 91.5875,269 90.5,267.5 Z"/></g>
<g><path style="opacity:1" fill="#e7f9e9" d="M 297.5,274.5 C 299.914,275.777 300.081,277.443 298,279.5C 295.325,281.158 292.825,282.991 290.5,285C 282.282,286.848 273.949,288.014 265.5,288.5C 270.986,288.402 275.486,290.402 279,294.5C 279.692,295.437 279.525,296.103 278.5,296.5C 277.942,295.21 276.942,294.377 275.5,294C 272.5,293 269.5,292 266.5,291C 262.957,290.856 259.624,290.689 256.5,290.5C 259.475,289.345 262.142,287.678 264.5,285.5C 270.323,286.582 275.99,286.582 281.5,285.5C 284.425,285.54 287.091,284.707 289.5,283C 293.07,280.932 295.737,278.099 297.5,274.5 Z"/></g>
<g><path style="opacity:1" fill="#359b5b" d="M 110.5,259.5 C 110.5,260.5 110.5,261.5 110.5,262.5C 109.872,268.525 109.372,274.525 109,280.5C 113.048,284.216 117.382,287.55 122,290.5C 120.073,286.645 118.073,282.645 116,278.5C 115.222,273.416 115.389,268.416 116.5,263.5C 116.842,262.662 117.508,262.328 118.5,262.5C 120.412,264.657 122.079,266.991 123.5,269.5C 124.872,278.024 126.205,286.524 127.5,295C 125.246,295.624 123.579,296.957 122.5,299C 117.58,300.25 112.58,300.75 107.5,300.5C 103.502,299.958 100.168,298.291 97.5,295.5C 99.9779,293.187 102.978,291.854 106.5,291.5C 110.824,290.403 115.157,290.236 119.5,291C 114.315,287.303 109.315,283.47 104.5,279.5C 104.267,277.938 103.6,276.605 102.5,275.5C 103.043,275.44 103.376,275.107 103.5,274.5C 99.1383,265.516 99.6383,256.849 105,248.5C 106.942,252.192 108.776,255.858 110.5,259.5 Z"/></g>
<g><path style="opacity:1" fill="#ebf8ef" d="M 110.5,262.5 C 111.552,262.351 112.552,262.517 113.5,263C 112.304,263.654 112.304,264.154 113.5,264.5C 114.417,263.873 115.417,263.539 116.5,263.5C 115.389,268.416 115.222,273.416 116,278.5C 118.073,282.645 120.073,286.645 122,290.5C 117.382,287.55 113.048,284.216 109,280.5C 109.372,274.525 109.872,268.525 110.5,262.5 Z"/></g>
<g><path style="opacity:1" fill="#d4f1da" d="M 240.5,275.5 C 241.209,274.596 242.209,274.263 243.5,274.5C 243.666,279.179 243.499,283.845 243,288.5C 242.255,290.203 241.421,291.87 240.5,293.5C 240.833,294.167 241.167,294.833 241.5,295.5C 242.736,294.754 244.07,294.421 245.5,294.5C 240.689,297.07 235.689,299.403 230.5,301.5C 230.167,301.5 229.833,301.5 229.5,301.5C 229.833,300.833 230.167,300.167 230.5,299.5C 235.992,296.677 239.659,292.344 241.5,286.5C 242.161,284.866 242.494,283.033 242.5,281C 242.453,278.705 241.787,276.871 240.5,275.5 Z"/></g>
<g><path style="opacity:1" fill="#45915b" d="M 247.5,289.5 C 247.215,291.288 247.548,292.955 248.5,294.5C 253.596,300.031 259.929,302.031 267.5,300.5C 263.03,301.486 258.363,301.819 253.5,301.5C 251.168,299.667 248.502,298.334 245.5,297.5C 241.629,298.939 237.962,300.606 234.5,302.5C 232.901,302.768 231.568,302.434 230.5,301.5C 235.689,299.403 240.689,297.07 245.5,294.5C 246.167,292.833 246.833,291.167 247.5,289.5 Z"/></g>
<g><path style="opacity:1" fill="#489f57" d="M 260.5,276.5 C 258.93,282.125 255.93,286.958 251.5,291C 252.819,291.195 254.153,291.028 255.5,290.5C 255.833,290.5 256.167,290.5 256.5,290.5C 259.624,290.689 262.957,290.856 266.5,291C 269.5,292 272.5,293 275.5,294C 276.942,294.377 277.942,295.21 278.5,296.5C 274.942,298.112 271.275,299.445 267.5,300.5C 259.929,302.031 253.596,300.031 248.5,294.5C 247.548,292.955 247.215,291.288 247.5,289.5C 246.542,278.752 250.042,269.752 258,262.5C 258.333,262.833 258.667,263.167 259,263.5C 260.367,267.7 260.867,272.033 260.5,276.5 Z"/></g>
<g><path style="opacity:1" fill="#e8f8ed" d="M 97.5,295.5 C 100.168,298.291 103.502,299.958 107.5,300.5C 114.363,302.287 121.029,301.454 127.5,298C 132.204,297.837 136.537,299.17 140.5,302C 135.713,301.957 131.379,303.123 127.5,305.5C 126.391,305.557 125.391,305.89 124.5,306.5C 124.5,305.5 124.5,304.5 124.5,303.5C 125.978,303.762 127.311,303.429 128.5,302.5C 127.5,302.167 126.5,301.833 125.5,301.5C 122.412,302.514 119.245,303.181 116,303.5C 109.762,302.898 103.596,301.898 97.5,300.5C 96.9035,298.602 96.9035,296.935 97.5,295.5 Z"/></g>
<g><path style="opacity:1" fill="#e6f8eb" d="M 253.5,301.5 C 251.738,301.643 250.071,301.309 248.5,300.5C 247.571,301.689 247.238,303.022 247.5,304.5C 243.326,302.936 238.993,302.269 234.5,302.5C 237.962,300.606 241.629,298.939 245.5,297.5C 248.502,298.334 251.168,299.667 253.5,301.5 Z"/></g>
<g><path style="opacity:1" fill="#509a6a" d="M 225.5,303.5 C 226.116,304.202 226.116,305.202 225.5,306.5C 219.455,307.242 213.455,308.242 207.5,309.5C 197.5,308.833 187.5,308.167 177.5,307.5C 193.727,308.428 209.727,307.094 225.5,303.5 Z"/></g>
<g><path style="opacity:1" fill="#3a935e" d="M 123.5,269.5 C 125.262,272.503 126.428,275.837 127,279.5C 127.375,284.21 128.042,288.877 129,293.5C 133.686,296.59 138.52,299.256 143.5,301.5C 143.586,302.496 143.252,303.329 142.5,304C 143.448,304.483 144.448,304.649 145.5,304.5C 145.351,305.552 145.517,306.552 146,307.5C 146.671,306.748 147.504,306.414 148.5,306.5C 139.99,316.484 129.99,318.15 118.5,311.5C 120.519,309.81 122.519,308.144 124.5,306.5C 125.391,305.89 126.391,305.557 127.5,305.5C 131.379,303.123 135.713,301.957 140.5,302C 136.537,299.17 132.204,297.837 127.5,298C 121.029,301.454 114.363,302.287 107.5,300.5C 112.58,300.75 117.58,300.25 122.5,299C 123.579,296.957 125.246,295.624 127.5,295C 126.205,286.524 124.872,278.024 123.5,269.5 Z"/></g>
<g><path style="opacity:1" fill="#e5f7ee" d="M 226.5,294.5 C 226.5,295.833 226.5,297.167 226.5,298.5C 225.549,299.919 225.216,301.585 225.5,303.5C 209.727,307.094 193.727,308.428 177.5,307.5C 170.224,307.508 163.224,306.508 156.5,304.5C 162.857,304.524 169.19,304.19 175.5,303.5C 175.5,304.5 175.5,305.5 175.5,306.5C 192.047,307.284 208.381,305.951 224.5,302.5C 223.964,299.302 224.631,296.635 226.5,294.5 Z"/></g>
<g><path style="opacity:1" fill="#3d9b59" d="M 226.5,298.5 C 226.5,299.5 226.5,300.5 226.5,301.5C 227.5,301.5 228.5,301.5 229.5,301.5C 229.833,301.5 230.167,301.5 230.5,301.5C 231.568,302.434 232.901,302.768 234.5,302.5C 238.993,302.269 243.326,302.936 247.5,304.5C 249.05,305.441 250.716,306.107 252.5,306.5C 253.81,308.148 255.143,309.814 256.5,311.5C 244.877,316.848 234.544,315.181 225.5,306.5C 226.116,305.202 226.116,304.202 225.5,303.5C 225.216,301.585 225.549,299.919 226.5,298.5 Z"/></g>
<g><path style="opacity:1" fill="#339759" d="M 141.5,280.5 C 146.168,286.983 149.001,294.316 150,302.5C 152.007,303.669 154.173,304.335 156.5,304.5C 163.224,306.508 170.224,307.508 177.5,307.5C 187.5,308.167 197.5,308.833 207.5,309.5C 208.207,313.371 210.54,315.705 214.5,316.5C 215.508,318.339 217.008,319.672 219,320.5C 219.591,321.483 219.257,322.15 218,322.5C 214.944,321.112 211.777,320.112 208.5,319.5C 205.454,316.643 201.787,314.81 197.5,314C 190.5,313.333 183.5,313.333 176.5,314C 173.826,314.67 171.493,315.837 169.5,317.5C 166.184,318.89 162.85,320.39 159.5,322C 158.056,322.781 156.723,322.614 155.5,321.5C 158.616,318.768 161.949,316.268 165.5,314C 167.037,312.89 167.703,311.39 167.5,309.5C 161.223,308.176 154.89,307.176 148.5,306.5C 147.504,306.414 146.671,306.748 146,307.5C 145.517,306.552 145.351,305.552 145.5,304.5C 144.448,304.649 143.448,304.483 142.5,304C 143.252,303.329 143.586,302.496 143.5,301.5C 144.239,301.631 144.906,301.464 145.5,301C 135.993,295.15 131.993,286.65 133.5,275.5C 134.552,275.351 135.552,275.517 136.5,276C 138.037,277.707 139.704,279.207 141.5,280.5 Z"/></g>
<g><path style="opacity:1" fill="#e7f9ef" d="M 225.5,306.5 C 234.544,315.181 244.877,316.848 256.5,311.5C 255.143,309.814 253.81,308.148 252.5,306.5C 256.349,306.502 259.015,308.335 260.5,312C 259.449,313.385 258.116,314.385 256.5,315C 248.5,315.667 240.5,315.667 232.5,315C 230.02,313.518 227.853,311.685 226,309.5C 222.879,308.464 219.713,308.297 216.5,309C 223.063,309.901 223.063,311.068 216.5,312.5C 215.105,311.185 214.105,311.519 213.5,313.5C 214.127,314.417 214.461,315.417 214.5,316.5C 210.54,315.705 208.207,313.371 207.5,309.5C 213.455,308.242 219.455,307.242 225.5,306.5 Z"/></g>
<g><path style="opacity:1" fill="#2c9e5a" d="M 127.5,305.5 C 130.435,305.283 133.269,304.617 136,303.5C 137.971,303.468 139.471,304.302 140.5,306C 140.167,306.333 139.833,306.667 139.5,307C 141.256,307.202 142.922,307.702 144.5,308.5C 141.564,309.115 138.897,310.282 136.5,312C 131.845,312.499 127.179,312.666 122.5,312.5C 122.351,311.448 122.517,310.448 123,309.5C 124.667,308.267 126.167,306.933 127.5,305.5 Z"/></g>
<g><path style="opacity:1" fill="#e6fbef" d="M 208.5,319.5 C 201.994,317.25 195.327,315.584 188.5,314.5C 182.124,315.376 175.791,316.376 169.5,317.5C 171.493,315.837 173.826,314.67 176.5,314C 183.5,313.333 190.5,313.333 197.5,314C 201.787,314.81 205.454,316.643 208.5,319.5 Z"/></g>
</svg>
